<svg xmlns="http://www.w3.org/2000/svg" xmlns:xlink="http://www.w3.org/1999/xlink" viewBox="0 0 1920 1080">
  <defs>
    <style>
      .cls-1 {
        fill: #f5f5f5;
      }

      .cls-2 {
        fill: #0c0838;
      }

      .cls-3, .cls-5 {
        fill: #fff;
      }

      .cls-4 {
        fill: url(#linear-gradient);
      }

      .cls-5 {
        opacity: 0.3;
      }

      .cls-6 {
        fill: url(#linear-gradient-2);
      }

      .cls-7 {
        fill: url(#linear-gradient-3);
      }

      .cls-8 {
        fill: #407bff;
      }

      .cls-9 {
        fill: #7142df;
      }

      .cls-10 {
        fill: url(#linear-gradient-4);
      }

      .cls-11 {
        fill: url(#linear-gradient-5);
      }

      .cls-12 {
        fill: url(#linear-gradient-6);
      }
    </style>
    <linearGradient id="linear-gradient" x1="853.84" y1="272.11" x2="1026.86" y2="272.11" gradientUnits="userSpaceOnUse">
      <stop offset="0" stop-color="#71c1ee"/>
      <stop offset="0.6" stop-color="#9b83cd"/>
      <stop offset="1" stop-color="#7142df"/>
    </linearGradient>
    <linearGradient id="linear-gradient-2" x1="448.42" y1="720.83" x2="556.21" y2="720.83" xlink:href="#linear-gradient"/>
    <linearGradient id="linear-gradient-3" x1="624.51" y1="630.09" x2="1245.65" y2="630.09" xlink:href="#linear-gradient"/>
    <linearGradient id="linear-gradient-4" x1="339.47" y1="829.89" x2="415.89" y2="829.89" xlink:href="#linear-gradient"/>
    <linearGradient id="linear-gradient-5" x1="984.47" y1="880.9" x2="1015.26" y2="880.9" xlink:href="#linear-gradient"/>
    <linearGradient id="linear-gradient-6" x1="1945.26" y1="679.81" x2="2053.05" y2="679.81" gradientTransform="translate(2818.99 2186.36) rotate(-143.39)" xlink:href="#linear-gradient"/>
  </defs>
  <g id="Robot_Parts" data-name="Robot Parts">
    <ellipse id="_Path_" data-name="&lt;Path&gt;" class="cls-1" cx="983.6" cy="933" rx="904.11" ry="70.64"/>
    <g>
      <g>
        <path class="cls-2" d="M810.59,414.28c6.2-100-5.21-281.86,182.82-257.79,201.53,25.79,143.87,261.45,143.87,261.45Z"/>
        <g>
          <circle class="cls-3" cx="940.35" cy="272.11" r="82.05"/>
          <path class="cls-2" d="M951.13,190.19c-38.87-6.64-80.42,22-84.51,51l154.07,14.17C1015.26,222.31,982,195.46,951.13,190.19Z"/>
          <path class="cls-2" d="M1003.14,270.07c-1.1,21.45-12.79,38.28-26.11,37.6S953.8,289,954.9,267.59,967.7,229.31,981,230,1004.24,248.62,1003.14,270.07Z"/>
          <path class="cls-4" d="M940.35,358.62a86.51,86.51,0,1,1,86.51-86.51A86.61,86.61,0,0,1,940.35,358.62Zm0-164.09a77.58,77.58,0,1,0,77.58,77.58A77.66,77.66,0,0,0,940.35,194.53Z"/>
        </g>
        <path class="cls-5" d="M1114.36,411.76a2.39,2.39,0,0,1-.53-.06,2.25,2.25,0,0,1-1.65-2.69c.15-.61,14.38-61.15-.4-122.36a2.23,2.23,0,1,1,4.34-1c15,62.29.55,123.84.41,124.45A2.23,2.23,0,0,1,1114.36,411.76Z"/>
        <path class="cls-5" d="M1101.91,253.17a2.24,2.24,0,0,1-2-1.3,157.65,157.65,0,0,0-21.17-34.19,2.23,2.23,0,0,1,3.46-2.83A162,162,0,0,1,1103.94,250a2.23,2.23,0,0,1-1.1,3A2.36,2.36,0,0,1,1101.91,253.17Z"/>
        <path class="cls-2" d="M392.14,883.45l-1.66,0a22.33,22.33,0,0,1,1.22-44.64h.43c12.9,0,43.93-15.67,108.85-118a22.34,22.34,0,0,1,33.53-4.87c80.1,69.85,165,113.33,165.84,113.76a22.32,22.32,0,0,1-20.2,39.81c-3.37-1.71-77.58-39.65-155.38-103.35C470.36,847.94,430,883.45,392.14,883.45Z"/>
        <path class="cls-2" d="M530.27,711.91a13.62,13.62,0,0,1-1.91-.13A13.39,13.39,0,0,1,517,696.62c3.17-22.22-.76-105.49-28.91-170.23A13.41,13.41,0,0,1,492.82,510c61.16-41.68,191.44-46.66,197-46.85a13.39,13.39,0,0,1,.94,26.77c-1.21,0-115.11,4.41-173.64,36.62C542,591,547.66,671.34,543.51,700.41A13.4,13.4,0,0,1,530.27,711.91Z"/>
        <path class="cls-6" d="M552.77,694.57c-8.91-21-49.06-18.63-72.64-.62-12.6,9.63-29.65,38.58-31.44,49.08s5.48,20,18,18.92c15.39-1.33,36.53-23.7,36.53-23.7-14.06,13.79,4.08,23.51,31.15,3.58C549.35,730.76,562.75,718.1,552.77,694.57Z"/>
        <path class="cls-2" d="M739.48,876c2.95-.94,2-3.78-1.32-3.78H677.71c-115.12-12.19-195.54,4.15-144.87,8s-3.57,3-40.57,17,275.28,17.53,303.68,0C822.15,881.09,698.69,889.06,739.48,876Z"/>
        <polygon class="cls-7" points="1172.33 893.81 646.34 876.37 624.51 366.37 1245.65 380.26 1172.33 893.81"/>
        <path class="cls-2" d="M810.59,884.05a2.24,2.24,0,0,1-2.23-2L766.2,369.77a2.23,2.23,0,1,1,4.45-.37l42.16,512.23a2.23,2.23,0,0,1-2,2.41Z"/>
        <g>
          <polygon class="cls-8" points="1172.33 893.81 1313.7 872.29 1358.23 398.06 1245.65 380.26 1172.33 893.81"/>
          <polygon class="cls-9" points="1172.33 893.81 1313.7 872.29 1358.23 398.06 1245.65 380.26 1172.33 893.81"/>
        </g>
        <path class="cls-2" d="M691.29,778.07l-13-303A54.77,54.77,0,0,1,734.28,418l393.18,8.8a54.77,54.77,0,0,1,53,62.5l-43.59,305.37a54.78,54.78,0,0,1-56.05,47L744.21,830.47A54.78,54.78,0,0,1,691.29,778.07Z"/>
        <path class="cls-3" d="M1085.4,719.32a5.86,5.86,0,0,1-4.33-1.91l-38.23-41.83-41.24,37.68a5.86,5.86,0,0,1-8.28-.37L955.1,671.06l-41.24,37.68a5.87,5.87,0,0,1-8.28-.37l-38.23-41.84-41.24,37.69a5.86,5.86,0,0,1-8.28-.37L779.61,662,738.36,699.7a5.86,5.86,0,1,1-7.9-8.65L776,649.41a5.85,5.85,0,0,1,8.28.37l38.22,41.83,41.24-37.68A5.93,5.93,0,0,1,868,652.4a5.85,5.85,0,0,1,4.06,1.9l38.23,41.83,41.24-37.68a5.85,5.85,0,0,1,8.28.37L998,700.65,1039.26,663a5.85,5.85,0,0,1,8.28.37l42.18,46.16a5.87,5.87,0,0,1-4.32,9.82Z"/>
        <g>
          <polygon class="cls-2" points="378.81 904.65 350.87 891.33 325.94 770.02 339.47 755.13 378.81 904.65"/>
          <g>
            <polygon class="cls-8" points="378.81 904.65 415.89 882.99 384.11 783.05 339.47 755.13 378.81 904.65"/>
            <polygon class="cls-10" points="378.81 904.65 415.89 882.99 384.11 783.05 339.47 755.13 378.81 904.65"/>
          </g>
        </g>
        <path class="cls-2" d="M986.94,926.7c-1.05,0-2.08,0-3.08,0A22.32,22.32,0,1,1,985.08,882c34.39,1.12,107.19-20,148.77-60.37a22.25,22.25,0,0,1,9.14-5.37c70.49-21.15,96.73,21.59,97.81,23.42l-38.43,22.73a5,5,0,0,0,.51.81c-.42-.59-10.41-13.57-42.2-5.54C1108.5,905.35,1028.4,926.7,986.94,926.7Z"/>
        <g>
          <polygon class="cls-2" points="984.47 956.38 903.15 951.26 896.73 801.34 1006.02 805.42 984.47 956.38"/>
          <g>
            <polygon class="cls-8" points="984.47 956.38 1003.48 937.46 1015.26 843.98 1006.02 805.42 984.47 956.38"/>
            <polygon class="cls-11" points="984.47 956.38 1003.48 937.46 1015.26 843.98 1006.02 805.42 984.47 956.38"/>
          </g>
        </g>
        <path class="cls-2" d="M1343.75,531.24c-5.31,36.18-35.27,62.85-59.64,59.27s-25.38-35.89-20.06-72.07,15-62.51,39.32-58.93S1349.07,495.07,1343.75,531.24Z"/>
        <circle class="cls-2" cx="754.43" cy="383.17" r="3.66"/>
        <path class="cls-2" d="M791.64,409.53a3.66,3.66,0,1,1-3.66-3.66A3.66,3.66,0,0,1,791.64,409.53Z"/>
        <path class="cls-2" d="M795.73,842.21a3.66,3.66,0,1,1-3.66-3.66A3.66,3.66,0,0,1,795.73,842.21Z"/>
        <path class="cls-2" d="M829.28,868.57a3.66,3.66,0,1,1-3.66-3.66A3.66,3.66,0,0,1,829.28,868.57Z"/>
      </g>
      <g>
        <path class="cls-3" d="M760,537.67l15.92.71L754,592.76l-17-.55-12.72-56.15,16.23.73,4.88,28.28a87,87,0,0,1,1.38,13.11c.32-1.76.84-4,1.58-6.59s1.35-4.69,1.87-6.19Z"/>
        <path class="cls-3" d="M777.08,593.52l4.46-54.89,14.16.64L791.33,594Z"/>
        <path class="cls-3" d="M833.32,595.37l-30.7-1,4.3-54.59,30.51,1.38-.89,11.7-16.6-.7-.66,8.54,15.39.62-.89,11.76-15.41-.58-.8,10.3,16.66.59Z"/>
        <path class="cls-3" d="M896.88,597.46l-16-.53-3.13-23.63q-.24-1.49-.67-5.89t-.56-7.35c-.29,1.59-.73,3.55-1.32,5.9s-1.14,4.5-1.69,6.47-2.8,10-6.77,24l-16.23-.54-8.57-54.58,13.24.59,3.51,27.22q1.22,9,1.52,14.4.74-3.76,2.36-10.17t2.94-10.61l5.92-20.11,12.55.57,2.84,20.4q.75,4.92,1.43,11.34t.83,9.61q.73-4.07,3.43-14l7.39-26.6,12.9.58Z"/>
        <path class="cls-3" d="M954.78,599.36l-7.49-38.49H947q.07,9.74-.28,15.14l-1.5,23-11.72-.38,3.5-53,17.49.78,7.72,37.83h.26l12.2-36.92,17.23.77-3.18,52.39-11.92-.39,1.43-23.1c.07-1.2.17-2.52.29-4s.5-5,1.11-10.72h-.3l-12.07,37.5Z"/>
        <path class="cls-3" d="M1044.58,576.25q-.72,13.07-6.89,19.7t-17.42,6.27q-11.12-.36-16.68-7.48t-4.77-20.34q.78-13,7.1-19.64t17.5-6.08q11.17.51,16.53,7.5T1044.58,576.25ZM1012.3,575q-.88,15.13,8.65,15.48a8.08,8.08,0,0,0,7.37-3.41q2.54-3.59,3-11.33t-1.7-11.57a7.7,7.7,0,0,0-6.83-4Q1013.21,559.76,1012.3,575Z"/>
        <path class="cls-3" d="M1065.08,584.15l-1,18.8-12.53-.41,2.82-51.65,15.1.68q18.66.84,17.86,15.92-.45,8.89-8.46,13.47l12.18,22.87-14-.46-8.77-19.1Zm.56-10.47,2.33.1c4.35.17,6.62-1.89,6.85-6.17q.27-5.29-6.1-5.57l-2.45-.1Z"/>
        <path class="cls-3" d="M1122.07,604.85l-26.88-.88,2.58-51.13,26.73,1.2-.53,11-14.54-.62-.39,8,13.48.55-.53,11-13.49-.51-.48,9.64,14.59.52Z"/>
      </g>
      <path class="cls-2" d="M1592,438.84a13.12,13.12,0,0,1,1.45,1.25,13.38,13.38,0,0,1,.09,18.94c-15.8,16-62.31,85.13-78.33,153.89a13.39,13.39,0,0,1-13.59,10.34c-74-3-181.5-76.72-186.05-79.86a13.39,13.39,0,0,1,15.22-22c1,.68,95,65.11,161.22,74.16,18.44-66.62,61.83-134.49,82.5-155.35A13.4,13.4,0,0,1,1592,438.84Z"/>
      <path class="cls-12" d="M1563.62,439.34c-5.38,22.18,28.27,44.21,57.94,43.82,15.85-.21,46.81-13.28,54.51-20.64s7.53-19.32-3.13-25.9c-13.15-8.11-43.46-2.76-43.46-2.76,19.51-2.68,10.75-21.31-22.87-21.45C1588,412.33,1569.65,414.5,1563.62,439.34Z"/>
    </g>
  </g>
</svg>
