<?xml version="1.0" encoding="utf-8"?>
<!-- Generator: Adobe Illustrator 25.0.0, SVG Export Plug-In . SVG Version: 6.00 Build 0)  -->
<svg version="1.1" id="Layer_1" xmlns="http://www.w3.org/2000/svg" xmlns:xlink="http://www.w3.org/1999/xlink" x="0px" y="0px"
	 viewBox="0 0 50 50" style="enable-background:new 0 0 50 50;" xml:space="preserve">
<style type="text/css">
	.st0{fill-rule:evenodd;clip-rule:evenodd;fill:url(#SVGID_1_);}
	.st1{fill:url(#SVGID_2_);}
</style>
<linearGradient id="SVGID_1_" gradientUnits="userSpaceOnUse" x1="-12.5437" y1="-1.7929" x2="55.0563" y2="42.1031" gradientTransform="matrix(1 0 0 -1 0 49.8898)">
	<stop  offset="0" style="stop-color:#21C3F1"/>
	<stop  offset="0.5975" style="stop-color:#A685D2"/>
	<stop  offset="1" style="stop-color:#7F40E5"/>
</linearGradient>
<path class="st0" d="M46,0H23.4c-2.2,0-4,1.8-4,4v0.8H21V4c0-1.3,1.1-2.4,2.4-2.4H46c1.3,0,2.4,1.1,2.4,2.4v2.4H25.8v1.6h22.6v30.6
	H25.7c0.1-0.3,0.1-0.5,0.1-0.8c0-0.6-0.2-1.2-0.6-1.6c0.4-0.4,0.6-1,0.6-1.6c0-0.7-0.3-1.4-0.9-1.8c0.2-0.2,0.3-0.4,0.4-0.6h2.1
	c0.9,0,1.6-0.7,1.6-1.6V19.4c0-0.9-0.7-1.6-1.6-1.6h-3.2c-0.9,0-1.6,0.7-1.6,1.6H12.1c-2.2,0-4,1.8-4,4v3.2c0,1.4,0.7,2.6,1.8,3.3
	c-1.1,0.6-2.1,1.3-3,2.3H0v14.5h16.1c0,1.8,1.4,3.2,3.2,3.2c0.7,0,1.4-0.2,1.9-0.6c0.6,0.4,1.4,0.6,2.1,0.6H46c2.2,0,4-1.8,4-4V4
	C50,1.8,48.2,0,46,0z M24.2,44.4c0,0.4-0.4,0.8-0.8,0.8h-1.6c-0.4,0-0.8-0.4-0.8-0.8c0-0.4,0.4-0.8,0.8-0.8h1.6
	C23.8,43.5,24.2,43.9,24.2,44.4z M21,34.7c0-0.4,0.4-0.8,0.8-0.8h1.6c0.4,0,0.8,0.4,0.8,0.8c0,0.4-0.4,0.8-0.8,0.8h-1.6
	C21.3,35.5,21,35.1,21,34.7z M24.2,41.1c0,0.4-0.4,0.8-0.8,0.8h-1.6c-0.4,0-0.8-0.4-0.8-0.8c0-0.4,0.4-0.8,0.8-0.8h1.6
	C23.8,40.3,24.2,40.7,24.2,41.1z M21.8,38.7c-0.4,0-0.8-0.4-0.8-0.8c0-0.4,0.4-0.8,0.8-0.8h1.6c0.4,0,0.8,0.4,0.8,0.8
	c0,0.4-0.4,0.8-0.8,0.8H21.8z M27.4,19.4v11.3h-1.6c0-0.9-0.7-1.6-1.6-1.6v-9.7H27.4z M12.1,29c-1.3,0-2.4-1.1-2.4-2.4v-3.2
	c0-1.3,1.1-2.4,2.4-2.4h10.5V29H12.1z M1.6,33.9h4.8v11.3H1.6V33.9z M8.1,45.2V33.4c1.4-1.7,3.5-2.7,5.6-2.7h10.5
	c0,0.9-0.7,1.6-1.6,1.6h-6.5v0.8c0,1.3-1.1,2.4-2.4,2.4h-0.8v1.6h0.8c0.9,0,1.7-0.3,2.4-0.8v8.9H8.1z M19.4,48.4
	c-0.9,0-1.6-0.7-1.6-1.6V33.9h1.8c-0.1,0.3-0.1,0.5-0.1,0.8c0,0.6,0.2,1.2,0.6,1.6c-0.4,0.4-0.6,1-0.6,1.6c0,0.6,0.2,1.2,0.6,1.6
	c-0.4,0.4-0.6,1-0.6,1.6c0,0.6,0.2,1.2,0.6,1.6c-0.4,0.4-0.6,1-0.6,1.6c0,1,0.7,1.9,1.6,2.3v0.1C21,47.7,20.2,48.4,19.4,48.4z
	 M46,48.4H23.4c-0.4,0-0.8-0.1-1.1-0.3c0.2-0.4,0.3-0.9,0.3-1.3h0.8c1.3,0,2.4-1.1,2.4-2.4c0-0.6-0.2-1.2-0.6-1.6
	c0.4-0.4,0.6-1,0.6-1.6c0-0.3-0.1-0.6-0.1-0.8h22.7V46C48.4,47.3,47.3,48.4,46,48.4z M38.7,41.9h-8.1c-0.9,0-1.6,0.7-1.6,1.6v1.6
	c0,0.9,0.7,1.6,1.6,1.6h8.1c0.9,0,1.6-0.7,1.6-1.6v-1.6C40.3,42.7,39.6,41.9,38.7,41.9z M30.6,45.2v-1.6h8.1l0,1.6H30.6z M25.8,3.2
	h-1.6v1.6h1.6V3.2z M27.4,3.2H29v1.6h-1.6V3.2z M30.6,30.6V19.4c0-0.9,0.7-1.6,1.6-1.6h11.3c0.9,0,1.6,0.7,1.6,1.6v11.3
	c0,0.9-0.7,1.6-1.6,1.6H32.3C31.4,32.3,30.6,31.5,30.6,30.6z M32.3,30.6h11.3l0-11.3h-3.2v3.2h-4.8v-3.2h-3.2V30.6z M38.7,19.4h-1.6
	V21h1.6V19.4z M32.3,9.7h12.9v1.6H32.3V9.7z M45.2,12.9H32.3v1.6h12.9V12.9z M43.5,33.9h1.6v1.6h-1.6V33.9z M41.9,33.9h-1.6v1.6h1.6
	V33.9z M22.6,6.5h1.6v9.7h-1.6V6.5z M21,14.5h-1.6v1.6H21V14.5z M19.4,6.5H21v6.5h-1.6V6.5z M17.7,14.5h-1.6v1.6h1.6V14.5z
	 M16.1,6.5h1.6v6.5h-1.6V6.5z M14.5,14.5h-1.6v1.6h1.6V14.5z M12.9,6.5h1.6v6.5h-1.6V6.5z M11.3,14.5H9.7v1.6h1.6V14.5z M9.7,6.5
	h1.6v6.5H9.7V6.5z M8.1,14.5H6.5v1.6h1.6V14.5z M6.5,6.5h1.6v6.5H6.5V6.5z M4.8,14.5H3.2v1.6h1.6V14.5z M3.2,6.5h1.6v6.5H3.2V6.5z
	 M1.6,6.5H0v9.7h1.6V6.5z"/>
<linearGradient id="SVGID_2_" gradientUnits="userSpaceOnUse" x1="-33.4165" y1="-68.3199" x2="33.0086" y2="-1.4636">
	<stop  offset="0" style="stop-color:#21C3F1"/>
	<stop  offset="0.5975" style="stop-color:#A685D2"/>
	<stop  offset="1" style="stop-color:#7F40E5"/>
</linearGradient>
<path class="st1" d="M32.6-33.8L32-34.7c-5.8-9.5-16.4-15.5-27.6-15.5s-21.7,5.9-27.6,15.5l-0.5,0.9c-0.4,0.7-0.6,1.4-0.6,2.2
	c0,0.8,0.2,1.5,0.6,2.2l0.5,0.9C-17.3-19-6.7-13.1,4.5-13.1S26.2-19,32-28.5l0.5-0.9c0.4-0.7,0.6-1.4,0.6-2.2
	C33.2-32.4,33-33.1,32.6-33.8z M21.1-31.6c0,2.7-0.7,5.3-1.9,7.6v-3.9h-5.6V-39h-1.9v-3.7H8.2v-1.9H6.3v1.9H4.5v-3.7H2.6v3.7H0.8
	v-1.9h-1.9v1.9h-3.7v3.7h-1.9v7.4h-1.9v10.5c-2.3-2.9-3.7-6.5-3.7-10.5c0-9.2,7.5-16.7,16.7-16.7S21.1-40.8,21.1-31.6z M2.6-29.8
	v1.9h-9.3v-1.9H2.6z M2.6-15.1c-3.5-0.4-6.7-1.9-9.3-4.2v-6.8h9.3V-15.1z M-4.8-31.6v-5.6h16.7v9.3H6.3v12.9
	c-0.6,0.1-1.2,0.1-1.9,0.1v-16.7H-4.8z M10-40.9v1.9h-13v-1.9H10z M15.6-19.2v-1.3h-1.9v1.9h1.2c-1.9,1.6-4.2,2.7-6.7,3.3v-10.7h9.3
	v4.9C16.9-20.5,16.2-19.8,15.6-19.2z M-21.5-29.5l-0.5-0.9c-0.2-0.4-0.3-0.8-0.3-1.2s0.1-0.9,0.3-1.2l0.5-0.9
	c3.3-5.5,8.4-9.7,14.2-12.1c-4.1,3.4-6.7,8.5-6.7,14.2c0,5.7,2.6,10.8,6.7,14.2C-13.1-19.8-18.2-24-21.5-29.5z M31-30.4l-0.5,0.9
	c-3.3,5.5-8.4,9.7-14.2,12.1c4.1-3.4,6.7-8.5,6.7-14.2c0-5.7-2.6-10.8-6.7-14.2c5.8,2.5,10.8,6.7,14.2,12.1l0.5,0.9
	c0.2,0.4,0.3,0.8,0.3,1.2S31.2-30.7,31-30.4z M4.5-52c10.5,0,20.6,5,27,13.3l1.5-1.1c-6.8-8.8-17.5-14-28.5-14
	c-11.1,0-21.7,5.2-28.5,14l1.5,1.1C-16.1-47-6-52,4.5-52z M10-24.2h1.9v1.9H10V-24.2z M13.7-24.2h1.9v1.9h-1.9V-24.2z M10-20.5h1.9
	v1.9H10V-20.5z M-1.1-24.2h1.9v1.9h-1.9V-24.2z M-4.8-24.2h1.9v1.9h-1.9V-24.2z M-4.8-20.5h1.9v1.9h-1.9V-20.5z M-1.1-20.5h1.9v1.9
	h-1.9V-20.5z M0.8-35.3h1.9v1.9H0.8V-35.3z M4.5-35.3h1.9v1.9H4.5V-35.3z M8.2-35.3H10v1.9H8.2V-35.3z M-2.9-35.3h1.9v1.9h-1.9
	V-35.3z M8.2-31.6H10v1.9H8.2V-31.6z M-6.6-9.4c-1.5,0-2.8,1.2-2.8,2.8c0,1.5,1.2,2.8,2.8,2.8s2.8-1.2,2.8-2.8
	C-3.9-8.1-5.1-9.4-6.6-9.4z M-6.6-5.7c-0.5,0-0.9-0.4-0.9-0.9s0.4-0.9,0.9-0.9c0.5,0,0.9,0.4,0.9,0.9S-6.1-5.7-6.6-5.7z M0.8-9.4
	C-0.8-9.4-2-8.1-2-6.6c0,1.5,1.2,2.8,2.8,2.8c1.5,0,2.8-1.2,2.8-2.8C3.5-8.1,2.3-9.4,0.8-9.4z M0.8-5.7c-0.5,0-0.9-0.4-0.9-0.9
	s0.4-0.9,0.9-0.9c0.5,0,0.9,0.4,0.9,0.9S1.3-5.7,0.8-5.7z M8.2-9.4c-1.5,0-2.8,1.2-2.8,2.8c0,1.5,1.2,2.8,2.8,2.8
	c1.5,0,2.8-1.2,2.8-2.8C10.9-8.1,9.7-9.4,8.2-9.4z M8.2-5.7c-0.5,0-0.9-0.4-0.9-0.9s0.4-0.9,0.9-0.9c0.5,0,0.9,0.4,0.9,0.9
	S8.7-5.7,8.2-5.7z M15.6-9.4c-1.5,0-2.8,1.2-2.8,2.8c0,1.5,1.2,2.8,2.8,2.8c1.5,0,2.8-1.2,2.8-2.8C18.4-8.1,17.1-9.4,15.6-9.4z
	 M15.6-5.7c-0.5,0-0.9-0.4-0.9-0.9s0.4-0.9,0.9-0.9c0.5,0,0.9,0.4,0.9,0.9S16.1-5.7,15.6-5.7z"/>
</svg>
