<?xml version="1.0" encoding="utf-8"?>
<!-- Generator: Adobe Illustrator 25.0.0, SVG Export Plug-In . SVG Version: 6.00 Build 0)  -->
<svg version="1.1" id="Layer_1" xmlns="http://www.w3.org/2000/svg" xmlns:xlink="http://www.w3.org/1999/xlink" x="0px" y="0px"
	 viewBox="0 0 50 50" style="enable-background:new 0 0 50 50;" xml:space="preserve">
<style type="text/css">
	.st0{fill:url(#SVGID_1_);}
	.st1{fill:url(#SVGID_2_);}
</style>
<linearGradient id="SVGID_1_" gradientUnits="userSpaceOnUse" x1="-6.4921" y1="8.8286" x2="50.7529" y2="46.0005">
	<stop  offset="0" style="stop-color:#21C3F1"/>
	<stop  offset="0.5975" style="stop-color:#A685D2"/>
	<stop  offset="1" style="stop-color:#7F40E5"/>
</linearGradient>
<path class="st0" d="M4.8,45.2h1.6v1.6H4.8V45.2z M8.1,45.2h1.6v1.6H8.1V45.2z M11.3,45.2h1.6v1.6h-1.6V45.2z M38.7,45.2h6.5v1.6
	h-6.5V45.2z M48.4,41.9V15.3c0-2.2-1.8-4-4-4h-2.4C41.9,5.1,36.9,0,30.6,0c-6.2,0-11.3,5.1-11.3,11.3H5.6c-2.2,0-4,1.8-4,4v26.6H0v4
	c0,2.2,1.8,4,4,4H46c2.2,0,4-1.8,4-4v-4H48.4z M44.4,12.9c1.3,0,2.4,1.1,2.4,2.4v26.6h-1.6V16.1c0-0.9-0.7-1.6-1.6-1.6h-2.1
	c0.2-0.5,0.3-1.1,0.3-1.6H44.4z M21.4,8.3l8.6,3.6l2.9,8.8c-0.7,0.2-1.5,0.3-2.3,0.3c-5.3,0-9.7-4.3-9.7-9.7
	C21,10.3,21.1,9.3,21.4,8.3z M34.5,20.2l-2.9-8.7L38,5c1.4,1.7,2.3,3.9,2.3,6.2C40.3,15.3,37.9,18.7,34.5,20.2z M30.6,1.6
	c2.4,0,4.6,0.9,6.2,2.3l-6.4,6.4l-8.4-3.5C23.7,3.7,26.9,1.6,30.6,1.6z M3.2,15.3c0-1.3,1.1-2.4,2.4-2.4h13.8
	c0.1,0.6,0.2,1.1,0.3,1.6H6.5c-0.9,0-1.6,0.7-1.6,1.6v25.8H3.2V15.3z M48.4,46c0,1.3-1.1,2.4-2.4,2.4H4c-1.3,0-2.4-1.1-2.4-2.4v-2.4
	h16.6c1.2,1,2.6,1.6,4.2,1.6h5.1c1.6,0,3.1-0.6,4.2-1.6h10.2v-1.6H31.1l-0.2,0.2c-0.9,0.9-2.1,1.4-3.3,1.4h-5.1
	c-1.3,0-2.4-0.5-3.3-1.4l-0.2-0.2H6.5V16.1h14c1.8,3.8,5.7,6.5,10.2,6.5c4.5,0,8.4-2.6,10.2-6.5h2.7v27.4h4.8V46z M39.5,33.9
	c-0.5,0-1,0.2-1.3,0.4l-2.8-2.1c0.1-0.2,0.1-0.5,0.1-0.7c0-1.3-1.1-2.4-2.4-2.4c-1.3,0-2.4,1.1-2.4,2.4c0,0.3,0.1,0.5,0.1,0.8
	l-4.5,3.6c-0.4-0.2-0.8-0.4-1.3-0.4c-0.5,0-1,0.2-1.4,0.5l-3.5-2.3c0-0.2,0.1-0.4,0.1-0.6c0-1.3-1.1-2.4-2.4-2.4s-2.4,1.1-2.4,2.4
	c0,0.2,0,0.4,0.1,0.6L11.9,36c-0.4-0.3-0.9-0.5-1.4-0.5c-1.3,0-2.4,1.1-2.4,2.4c0,1.3,1.1,2.4,2.4,2.4c1.3,0,2.4-1.1,2.4-2.4
	c0-0.2,0-0.4-0.1-0.6l3.5-2.3c0.4,0.3,0.9,0.5,1.4,0.5c0.5,0,1-0.2,1.4-0.5l3.5,2.3c0,0.2-0.1,0.4-0.1,0.6c0,1.3,1.1,2.4,2.4,2.4
	c1.3,0,2.4-1.1,2.4-2.4c0-0.3-0.1-0.5-0.1-0.8l4.5-3.6c0.4,0.2,0.8,0.4,1.3,0.4c0.5,0,1-0.2,1.3-0.4l2.8,2.1
	c-0.1,0.2-0.1,0.5-0.1,0.7c0,1.3,1.1,2.4,2.4,2.4c1.3,0,2.4-1.1,2.4-2.4C41.9,35,40.8,33.9,39.5,33.9z M10.5,38.7
	c-0.4,0-0.8-0.4-0.8-0.8c0-0.4,0.4-0.8,0.8-0.8c0.4,0,0.8,0.4,0.8,0.8C11.3,38.3,10.9,38.7,10.5,38.7z M17.7,33.9
	c-0.4,0-0.8-0.4-0.8-0.8c0-0.4,0.4-0.8,0.8-0.8c0.4,0,0.8,0.4,0.8,0.8C18.5,33.5,18.2,33.9,17.7,33.9z M25,38.7
	c-0.4,0-0.8-0.4-0.8-0.8c0-0.4,0.4-0.8,0.8-0.8c0.4,0,0.8,0.4,0.8,0.8C25.8,38.3,25.4,38.7,25,38.7z M33.1,32.3
	c-0.4,0-0.8-0.4-0.8-0.8c0-0.4,0.4-0.8,0.8-0.8c0.4,0,0.8,0.4,0.8,0.8C33.9,31.9,33.5,32.3,33.1,32.3z M39.5,37.1
	c-0.4,0-0.8-0.4-0.8-0.8c0-0.4,0.4-0.8,0.8-0.8c0.4,0,0.8,0.4,0.8,0.8C40.3,36.7,40,37.1,39.5,37.1z M21,17.7H8.1V29H21V17.7z
	 M19.4,27.4H9.7v-8.1h9.7V27.4z M11.3,21h6.5v1.6h-6.5V21z M11.3,24.2h6.5v1.6h-6.5V24.2z M22.6,25.8h1.6v1.6h-1.6V25.8z M25.8,25.8
	h16.1v1.6H25.8V25.8z"/>
<linearGradient id="SVGID_2_" gradientUnits="userSpaceOnUse" x1="-74.8846" y1="61.4035" x2="-8.4595" y2="128.2598">
	<stop  offset="0" style="stop-color:#21C3F1"/>
	<stop  offset="0.5975" style="stop-color:#A685D2"/>
	<stop  offset="1" style="stop-color:#7F40E5"/>
</linearGradient>
<path class="st1" d="M-8.9,95.9L-9.4,95c-5.8-9.5-16.4-15.5-27.6-15.5S-58.7,85.5-64.6,95l-0.5,0.9c-0.4,0.7-0.6,1.4-0.6,2.2
	s0.2,1.5,0.6,2.2l0.5,0.9c5.8,9.5,16.4,15.5,27.6,15.5s21.7-5.9,27.6-15.5l0.5-0.9c0.4-0.7,0.6-1.4,0.6-2.2S-8.5,96.6-8.9,95.9z
	 M-20.3,98.1c0,2.7-0.7,5.3-1.9,7.6v-3.9h-5.6V90.7h-1.9V87h-3.7v-1.9h-1.9V87H-37v-3.7h-1.9V87h-1.9v-1.9h-1.9V87h-3.7v3.7h-1.9
	v7.4H-50v10.5c-2.3-2.9-3.7-6.5-3.7-10.5c0-9.2,7.5-16.7,16.7-16.7S-20.3,88.9-20.3,98.1z M-38.9,100v1.9h-9.3V100H-38.9z
	 M-38.9,114.7c-3.5-0.4-6.7-1.9-9.3-4.2v-6.8h9.3V114.7z M-46.3,98.1v-5.6h16.7v9.3h-5.6v12.9c-0.6,0.1-1.2,0.1-1.9,0.1V98.1H-46.3z
	 M-31.4,88.9v1.9h-13v-1.9H-31.4z M-25.9,110.5v-1.3h-1.9v1.9h1.2c-1.9,1.6-4.2,2.7-6.7,3.3v-10.7h9.3v4.9
	C-24.6,109.3-25.2,109.9-25.9,110.5z M-63,100.2l-0.5-0.9c-0.2-0.4-0.3-0.8-0.3-1.2c0-0.4,0.1-0.9,0.3-1.2L-63,96
	c3.3-5.5,8.4-9.7,14.2-12.1c-4.1,3.4-6.7,8.5-6.7,14.2c0,5.7,2.6,10.8,6.7,14.2C-54.6,109.9-59.6,105.7-63,100.2z M-10.5,99.3
	l-0.5,0.9c-3.3,5.5-8.4,9.7-14.2,12.1c4.1-3.4,6.7-8.5,6.7-14.2c0-5.7-2.6-10.8-6.7-14.2c5.8,2.5,10.8,6.7,14.2,12.1l0.5,0.9
	c0.2,0.4,0.3,0.8,0.3,1.2C-10.1,98.5-10.3,99-10.5,99.3z M-37,77.7c10.5,0,20.6,5,27,13.3l1.5-1.1c-6.8-8.8-17.5-14-28.5-14
	c-11.1,0-21.7,5.2-28.5,14l1.5,1.1C-57.6,82.7-47.5,77.7-37,77.7z M-31.4,105.5h1.9v1.9h-1.9V105.5z M-27.7,105.5h1.9v1.9h-1.9
	V105.5z M-31.4,109.2h1.9v1.9h-1.9V109.2z M-42.6,105.5h1.9v1.9h-1.9V105.5z M-46.3,105.5h1.9v1.9h-1.9V105.5z M-46.3,109.2h1.9v1.9
	h-1.9V109.2z M-42.6,109.2h1.9v1.9h-1.9V109.2z M-40.7,94.4h1.9v1.9h-1.9V94.4z M-37,94.4h1.9v1.9H-37V94.4z M-33.3,94.4h1.9v1.9
	h-1.9V94.4z M-44.4,94.4h1.9v1.9h-1.9V94.4z M-33.3,98.1h1.9v1.9h-1.9V98.1z M-48.1,120.3c-1.5,0-2.8,1.2-2.8,2.8s1.2,2.8,2.8,2.8
	c1.5,0,2.8-1.2,2.8-2.8S-46.6,120.3-48.1,120.3z M-48.1,124c-0.5,0-0.9-0.4-0.9-0.9s0.4-0.9,0.9-0.9c0.5,0,0.9,0.4,0.9,0.9
	S-47.6,124-48.1,124z M-40.7,120.3c-1.5,0-2.8,1.2-2.8,2.8s1.2,2.8,2.8,2.8c1.5,0,2.8-1.2,2.8-2.8S-39.2,120.3-40.7,120.3z
	 M-40.7,124c-0.5,0-0.9-0.4-0.9-0.9s0.4-0.9,0.9-0.9s0.9,0.4,0.9,0.9S-40.2,124-40.7,124z M-33.3,120.3c-1.5,0-2.8,1.2-2.8,2.8
	s1.2,2.8,2.8,2.8c1.5,0,2.8-1.2,2.8-2.8S-31.8,120.3-33.3,120.3z M-33.3,124c-0.5,0-0.9-0.4-0.9-0.9s0.4-0.9,0.9-0.9
	c0.5,0,0.9,0.4,0.9,0.9S-32.8,124-33.3,124z M-25.9,120.3c-1.5,0-2.8,1.2-2.8,2.8s1.2,2.8,2.8,2.8c1.5,0,2.8-1.2,2.8-2.8
	S-24.4,120.3-25.9,120.3z M-25.9,124c-0.5,0-0.9-0.4-0.9-0.9s0.4-0.9,0.9-0.9s0.9,0.4,0.9,0.9S-25.4,124-25.9,124z"/>
</svg>
