<?xml version="1.0" encoding="utf-8"?>
<!-- Generator: Adobe Illustrator 25.0.0, SVG Export Plug-In . SVG Version: 6.00 Build 0)  -->
<svg version="1.1" id="Layer_1" xmlns="http://www.w3.org/2000/svg" xmlns:xlink="http://www.w3.org/1999/xlink" x="0px" y="0px"
	 viewBox="0 0 35 50" style="enable-background:new 0 0 35 50;" xml:space="preserve">
<style type="text/css">
	.st0{fill:url(#SVGID_1_);}
	.st1{fill:url(#SVGID_2_);}
</style>
<linearGradient id="SVGID_1_" gradientUnits="userSpaceOnUse" x1="-14.9368" y1="12.4329" x2="41.093" y2="36.6882">
	<stop  offset="0" style="stop-color:#21C3F1"/>
	<stop  offset="0.5975" style="stop-color:#A685D2"/>
	<stop  offset="1" style="stop-color:#7F40E5"/>
</linearGradient>
<path class="st0" d="M16.5,25.9h1.6c0.4,0,0.8,0.4,0.8,0.8h1.6c0-1.3-1.1-2.4-2.4-2.4v-0.8h-1.6v0.8c-1.3,0-2.4,1.1-2.4,2.4
	c0,1.3,1.1,2.4,2.4,2.4h1.6c0.4,0,0.8,0.4,0.8,0.8c0,0.4-0.4,0.8-0.8,0.8h-1.6c-0.4,0-0.8-0.4-0.8-0.8h-1.6c0,1.3,1.1,2.4,2.4,2.4
	v0.8h1.6v-0.8c1.3,0,2.4-1.1,2.4-2.4c0-1.3-1.1-2.4-2.4-2.4h-1.6c-0.4,0-0.8-0.4-0.8-0.8S16.1,25.9,16.5,25.9z M18.2,38h1.6v1.6
	h-1.6V38z M14.9,38h1.6v1.6h-1.6V38z M32.8,35.9c-0.3-0.2-0.6-0.4-0.8-0.6c-0.6-0.6-0.9-1.4-0.9-2.2v-3.9c0-2.8-0.3-5.6-0.8-8.3l0,0
	c-0.1-0.7-0.3-1.4-0.6-2.1c1.5-1.5,2.5-3.4,2.9-5.5c0.1-0.7,0.2-1.4,0.2-2.2v-0.9c0-1.2-0.9-2.1-2.1-2.1c-0.3,0-0.7,0.1-0.9,0.2
	l-6.2,3.1c-0.9-0.5-1.9-1-3-1.2l-1.4-8.7C18.9,0.6,18.2,0,17.3,0s-1.6,0.6-1.7,1.5l-1.4,8.7c-1,0.3-2,0.7-3,1.2L5.1,8.3
	C4.8,8.2,4.4,8.1,4.1,8.1C2.9,8.1,2,9,2,10.2v0.9c0,0.7,0.1,1.5,0.2,2.2c0.4,2.1,1.4,4,2.9,5.5c-0.3,0.6-0.6,1.4-0.6,2.1l0,0
	c-0.5,2.7-0.8,5.5-0.8,8.3v3.9c0,0.8-0.3,1.6-0.9,2.2c-0.2,0.2-0.5,0.4-0.8,0.6L0,36.9L0.8,38c0.8,1.2,2,2,3.4,2.3
	c-0.4,0.8-0.6,1.6-0.6,2.5c0,2.3,1.3,4.4,3.4,5.4l3.5,1.8l-1-4.1c-0.1-0.5-0.2-1-0.2-1.5c0-1.4,0.5-2.7,1.3-3.8l1-1.3
	c1.1,2.1,3.2,3.5,5.7,3.5s4.6-1.4,5.7-3.5l1,1.3c0.8,1.1,1.3,2.4,1.3,3.8c0,0.5-0.1,1-0.2,1.5l-1,4.1l3.5-1.8c2.1-1,3.4-3.1,3.4-5.4
	c0-0.9-0.2-1.7-0.6-2.5c1.4-0.3,2.6-1.1,3.4-2.3l0.8-1.2L32.8,35.9z M23.5,30.3c-0.8,1.5-1.2,3.2-1.3,5c-1-0.2-2.8-0.6-4.9-0.6
	c-2.1,0-3.8,0.3-4.9,0.6c-0.1-1.7-0.5-3.4-1.3-5c-0.7-1.5-1.1-3.1-1.1-4.8v-3.4c0.5-0.5,1.2-0.9,1.8-1.2c-0.1,0.2-0.1,0.4-0.2,0.7
	l-0.2,1h2.9c1.5,0,3-0.4,4.4-1.2c0.6-0.4,1.1-0.8,1.6-1.3l0,0l0.8,0.2c1.3,0.3,2.4,0.9,3.4,1.8v3.4C24.6,27.2,24.2,28.9,23.5,30.3z
	 M18.5,8.1h-2.4l0.3-1.6h1.9L18.5,8.1z M18.8,9.7l0.3,1.6h-3.5l0.3-1.6H18.8z M15.3,12.9h4l0.3,1.6h-4.6L15.3,12.9z M17.3,16.4
	l0.3-0.2h3c0.1,0,0.3,0,0.4,0l-0.2,0.5c-0.6,1.4-1.6,2.6-2.8,3.3c-1.1,0.6-2.3,1-3.5,1h-0.9C14.2,19.1,15.5,17.4,17.3,16.4z
	 M26.1,21.4c-1.2-1.2-2.8-2.1-4.5-2.6l-0.1,0c0.3-0.5,0.6-1,0.8-1.5l0.4-1c0.3,0,0.6,0.1,0.9,0.1c1.5,0.3,2.8,1,3.8,2
	c0.8,0.8,1.2,1.8,1.2,2.9c0,0.6-0.2,1.3-0.4,1.9l-0.3,0.6C27.5,23,26.9,22.1,26.1,21.4z M27.3,14.9l3.6-1.8
	c-0.4,1.6-1.1,3.1-2.2,4.3C28.3,16.5,27.8,15.7,27.3,14.9z M30.4,9.8c0.3-0.2,0.7,0.1,0.7,0.4v0.9c0,0,0,0.1,0,0.1l-4.8,2.4
	c-0.4-0.4-0.8-0.8-1.3-1.2L30.4,9.8z M25.7,15.4c-0.6-0.2-1.1-0.4-1.7-0.5c-0.9-0.2-1.8-0.3-2.7-0.3l-0.4-2.7
	C22.8,12.6,24.4,13.8,25.7,15.4z M17.5,1.7L18,4.8h-1.3l0.5-3.1C17.2,1.6,17.5,1.6,17.5,1.7z M14.8,16.2c-0.9,0.8-1.6,1.7-2.1,2.8
	c-1.5,0.5-3,1.3-4.1,2.4c-0.7,0.7-1.3,1.6-1.8,2.5l-0.3-0.6C6.2,22.7,6,22.1,6,21.5c0-1.1,0.4-2.2,1.2-2.9c1.1-1,2.4-1.8,3.8-2
	l0.8-0.2l-0.3-1.6l-0.8,0.2C10.2,15,9.6,15.2,9,15.4c1.2-1.6,2.9-2.8,4.8-3.5l-0.7,4.3H14.8z M6,17.4c-1.1-1.2-1.9-2.7-2.2-4.3
	l3.6,1.8C6.8,15.7,6.4,16.5,6,17.4z M3.6,10.2c0-0.4,0.4-0.6,0.7-0.4l5.4,2.7c-0.5,0.4-0.9,0.8-1.3,1.2l-4.8-2.4c0,0,0-0.1,0-0.1
	V10.2z M9.3,39.7c-1.1,1.3-1.7,3-1.7,4.8c0,0.6,0.1,1.2,0.2,1.8L8.1,47l-0.4-0.2c-1.5-0.8-2.5-2.3-2.5-4c0-0.9,0.3-1.7,0.7-2.5
	c1.6-2.4,2.5-5.3,2.5-8.2v-1.4H6.8v1.4c0,2.3-0.6,4.6-1.8,6.6c-1-0.1-2-0.5-2.7-1.3l0.2-0.1c0.5-0.2,0.9-0.5,1.2-0.9
	c0.9-0.9,1.4-2.1,1.4-3.4v-3.9c0-1.4,0.1-2.9,0.2-4.3L7,28l0.8-2.3c0.2-0.5,0.4-1,0.7-1.5v1.4c0,1.9,0.4,3.8,1.3,5.5
	c0.7,1.5,1.1,3.1,1.1,4.8v0.5c0,0.4,0,0.8,0.1,1.2L9.3,39.7z M17.3,41.2c-2.5,0-4.5-1.9-4.8-4.2c0.9-0.2,2.7-0.6,4.8-0.6
	c2.1,0,3.9,0.4,4.8,0.6C21.9,39.4,19.8,41.2,17.3,41.2z M29.7,38.8c-1.2-2-1.8-4.3-1.8-6.6v-1.4h-1.6v1.4c0,2.9,0.9,5.8,2.5,8.2
	c0.5,0.7,0.7,1.6,0.7,2.5c0,1.7-0.9,3.2-2.5,4L26.6,47l0.2-0.7C27,45.7,27,45,27,44.4c0-1.7-0.6-3.4-1.7-4.8l-1.7-2.1
	c0.1-0.4,0.1-0.8,0.1-1.2v-0.5c0-1.6,0.4-3.3,1.1-4.8c0.8-1.7,1.3-3.6,1.3-5.5v-1.4c0.3,0.5,0.5,1,0.7,1.5l0.8,2.3l1.5-3.1
	c0.2,1.4,0.2,2.9,0.2,4.3v3.9c0,1.3,0.5,2.5,1.4,3.4c0.4,0.4,0.8,0.7,1.2,0.9l0.2,0.1C31.6,38.3,30.7,38.7,29.7,38.8z"/>
<image style="overflow:visible;" width="128" height="128" xlink:href="D:\Freelancing\BidStruct\LOGO Final\FAV\BidStruct-LogoFinalx128.png"  transform="matrix(0.2832 0 0 0.2832 287.8723 -255.2379)">
</image>
<linearGradient id="SVGID_2_" gradientUnits="userSpaceOnUse" x1="-137.5881" y1="26.3294" x2="-71.163" y2="93.1858">
	<stop  offset="0" style="stop-color:#21C3F1"/>
	<stop  offset="0.5975" style="stop-color:#A685D2"/>
	<stop  offset="1" style="stop-color:#7F40E5"/>
</linearGradient>
<path class="st1" d="M-71.6,60.8l-0.5-0.9c-5.8-9.5-16.4-15.5-27.6-15.5s-21.7,5.9-27.6,15.5l-0.5,0.9c-0.4,0.7-0.6,1.4-0.6,2.2
	c0,0.8,0.2,1.5,0.6,2.2l0.5,0.9c5.8,9.5,16.4,15.5,27.6,15.5s21.7-5.9,27.6-15.5l0.5-0.9c0.4-0.7,0.6-1.4,0.6-2.2
	C-71,62.3-71.2,61.5-71.6,60.8z M-83,63c0,2.7-0.7,5.3-1.9,7.6v-3.9h-5.6V55.6h-1.9v-3.7H-96v-1.9h-1.9v1.9h-1.9v-3.7h-1.9v3.7h-1.9
	v-1.9h-1.9v1.9h-3.7v3.7h-1.9V63h-1.9v10.5c-2.3-2.9-3.7-6.5-3.7-10.5c0-9.2,7.5-16.7,16.7-16.7S-83,53.8-83,63z M-101.6,64.9v1.9
	h-9.3v-1.9H-101.6z M-101.6,79.6c-3.5-0.4-6.7-1.9-9.3-4.2v-6.8h9.3V79.6z M-109,63v-5.6h16.7v9.3h-5.6v12.9
	c-0.6,0.1-1.2,0.1-1.9,0.1V63H-109z M-94.1,53.8v1.9h-13v-1.9H-94.1z M-88.6,75.4v-1.3h-1.9V76h1.2c-1.9,1.6-4.2,2.7-6.7,3.3V68.6
	h9.3v4.9C-87.3,74.2-87.9,74.8-88.6,75.4z M-125.7,65.1l-0.5-0.9c-0.2-0.4-0.3-0.8-0.3-1.2s0.1-0.9,0.3-1.2l0.5-0.9
	c3.3-5.5,8.4-9.7,14.2-12.1c-4.1,3.4-6.7,8.5-6.7,14.2c0,5.7,2.6,10.8,6.7,14.2C-117.3,74.8-122.3,70.6-125.7,65.1z M-73.2,64.3
	l-0.5,0.9c-3.3,5.5-8.4,9.7-14.2,12.1c4.1-3.4,6.7-8.5,6.7-14.2c0-5.7-2.6-10.8-6.7-14.2c5.8,2.5,10.8,6.7,14.2,12.1l0.5,0.9
	c0.2,0.4,0.3,0.8,0.3,1.2S-73,63.9-73.2,64.3z M-99.7,42.7c10.5,0,20.6,5,27,13.3l1.5-1.1c-6.8-8.8-17.5-14-28.5-14
	c-11.1,0-21.7,5.2-28.5,14l1.5,1.1C-120.3,47.6-110.2,42.7-99.7,42.7z M-94.1,70.4h1.9v1.9h-1.9V70.4z M-90.4,70.4h1.9v1.9h-1.9
	V70.4z M-94.1,74.1h1.9V76h-1.9V74.1z M-105.3,70.4h1.9v1.9h-1.9V70.4z M-109,70.4h1.9v1.9h-1.9V70.4z M-109,74.1h1.9V76h-1.9V74.1z
	 M-105.3,74.1h1.9V76h-1.9V74.1z M-103.4,59.3h1.9v1.9h-1.9V59.3z M-99.7,59.3h1.9v1.9h-1.9V59.3z M-96,59.3h1.9v1.9H-96V59.3z
	 M-107.1,59.3h1.9v1.9h-1.9V59.3z M-96,63h1.9v1.9H-96V63z M-110.8,85.3c-1.5,0-2.8,1.2-2.8,2.8s1.2,2.8,2.8,2.8
	c1.5,0,2.8-1.2,2.8-2.8S-109.3,85.3-110.8,85.3z M-110.8,89c-0.5,0-0.9-0.4-0.9-0.9s0.4-0.9,0.9-0.9c0.5,0,0.9,0.4,0.9,0.9
	S-110.3,89-110.8,89z M-103.4,85.3c-1.5,0-2.8,1.2-2.8,2.8s1.2,2.8,2.8,2.8c1.5,0,2.8-1.2,2.8-2.8S-101.9,85.3-103.4,85.3z
	 M-103.4,89c-0.5,0-0.9-0.4-0.9-0.9s0.4-0.9,0.9-0.9s0.9,0.4,0.9,0.9S-102.9,89-103.4,89z M-96,85.3c-1.5,0-2.8,1.2-2.8,2.8
	s1.2,2.8,2.8,2.8c1.5,0,2.8-1.2,2.8-2.8S-94.5,85.3-96,85.3z M-96,89c-0.5,0-0.9-0.4-0.9-0.9s0.4-0.9,0.9-0.9c0.5,0,0.9,0.4,0.9,0.9
	S-95.5,89-96,89z M-88.6,85.3c-1.5,0-2.8,1.2-2.8,2.8s1.2,2.8,2.8,2.8c1.5,0,2.8-1.2,2.8-2.8S-87.1,85.3-88.6,85.3z M-88.6,89
	c-0.5,0-0.9-0.4-0.9-0.9s0.4-0.9,0.9-0.9s0.9,0.4,0.9,0.9S-88.1,89-88.6,89z"/>
</svg>
