<?xml version="1.0" encoding="utf-8"?>
<!-- Generator: Adobe Illustrator 25.0.0, SVG Export Plug-In . SVG Version: 6.00 Build 0)  -->
<svg version="1.1" id="Layer_1" xmlns="http://www.w3.org/2000/svg" xmlns:xlink="http://www.w3.org/1999/xlink" x="0px" y="0px"
	 viewBox="0 0 50 50" style="enable-background:new 0 0 50 50;" xml:space="preserve">
<style type="text/css">
	.st0{fill:url(#SVGID_1_);}
	.st1{fill:url(#SVGID_2_);}
</style>
<linearGradient id="SVGID_1_" gradientUnits="userSpaceOnUse" x1="-22.015" y1="-6.6281" x2="59.5711" y2="46.3499">
	<stop  offset="0" style="stop-color:#21C3F1"/>
	<stop  offset="0.5975" style="stop-color:#A685D2"/>
	<stop  offset="1" style="stop-color:#7F40E5"/>
</linearGradient>
<path class="st0" d="M37.9,21c4.9,0,8.9-4,8.9-8.9c0-4.9-4-8.9-8.9-8.9s-8.9,4-8.9,8.9C29,17,33,21,37.9,21z M37.9,4.8
	c4,0,7.3,3.3,7.3,7.3c0,4-3.3,7.3-7.3,7.3s-7.3-3.3-7.3-7.3C30.6,8.1,33.9,4.8,37.9,4.8z M37.9,16.1c2.2,0,4-1.8,4-4
	c0-2.2-1.8-4-4-4c-2.2,0-4,1.8-4,4C33.9,14.3,35.7,16.1,37.9,16.1z M37.9,9.7c1.3,0,2.4,1.1,2.4,2.4s-1.1,2.4-2.4,2.4
	c-1.3,0-2.4-1.1-2.4-2.4S36.6,9.7,37.9,9.7z M50,12.1C50,5.4,44.6,0,37.9,0c-3.2,0-6,1.2-8.2,3.2H4c-2.2,0-4,1.8-4,4v9.7
	c0,1.3,0.6,2.5,1.6,3.2v21c0,2.2,1.8,4,4,4h11.3v3.2h-3.2V50h22.6v-1.6h-3.2v-3.2h11.3c2.2,0,4-1.8,4-4v-23
	C49.4,16.3,50,14.3,50,12.1z M37.9,1.6c5.8,0,10.5,4.7,10.5,10.5c0,5.8-4.7,10.5-10.5,10.5c-5.8,0-10.5-4.7-10.5-10.5
	C27.4,6.3,32.1,1.6,37.9,1.6z M38.7,37.1h-3.2v-4.8h3.2V37.1z M33.9,30.6v6.5h-1.6V22.8c1.7,0.9,3.6,1.4,5.6,1.4s4-0.5,5.6-1.4v14.3
	h-3.2v-6.5H33.9z M22.6,37.1h-3.2v-9.7h3.2V37.1z M17.7,25.8v11.3h-1.6V29H9.7v8.1H6.5V21h8.1v0.8c0,1.3,1.1,2.4,2.4,2.4
	c0.8,0,1.5-0.4,1.9-1l1.7-2.3h9.1c0.7,0.6,1.4,1.2,2.2,1.6h-6.1v14.5h-1.6V25.8H17.7z M14.5,37.1h-3.2v-6.5h3.2V37.1z M6.5,10.5
	c0-1.3,1.1-2.4,2.4-2.4c1.3,0,2.4,1.1,2.4,2.4c0,1.3-1.1,2.4-2.4,2.4C7.5,12.9,6.5,11.8,6.5,10.5z M16.1,10.5c0-1.3,1.1-2.4,2.4-2.4
	c1.3,0,2.4,1.1,2.4,2.4c0,1.3-1.1,2.4-2.4,2.4C17.2,12.9,16.1,11.8,16.1,10.5z M13,19.4c0.4-2.7,2.7-4.8,5.6-4.8
	c2.8,0,5.2,2.1,5.6,4.8h-4.4l-2.2,2.9c-0.2,0.2-0.4,0.3-0.6,0.3c-0.4,0-0.8-0.4-0.8-0.8v-2.4H13z M11.3,19.4H4
	c-0.3,0-0.5-0.1-0.7-0.1c0.4-2.7,2.8-4.7,5.6-4.7c1.4,0,2.7,0.5,3.8,1.4C11.9,16.9,11.5,18.1,11.3,19.4z M27.4,24.2h3.2v12.9h-3.2
	V24.2z M1.6,7.3c0-1.3,1.1-2.4,2.4-2.4h24.2c-1.5,2-2.4,4.5-2.4,7.3c0,2.7,0.9,5.2,2.4,7.3h-2.5c-0.3-2.7-2.1-4.9-4.5-5.9
	c0.8-0.7,1.3-1.8,1.3-3c0-2.2-1.8-4-4-4s-4,1.8-4,4c0,1.2,0.5,2.2,1.3,3c-0.8,0.3-1.5,0.8-2.1,1.3c-0.6-0.6-1.4-1-2.1-1.3
	c0.8-0.7,1.3-1.8,1.3-3c0-2.2-1.8-4-4-4c-2.2,0-4,1.8-4,4c0,1.2,0.5,2.2,1.3,3c-2,0.8-3.6,2.5-4.2,4.7c-0.2-0.3-0.3-0.7-0.3-1.2V7.3
	z M31.5,48.4H18.5v-3.2h12.9V48.4z M46.8,41.1c0,1.3-1.1,2.4-2.4,2.4H5.6c-1.3,0-2.4-1.1-2.4-2.4V20.9C3.5,20.9,3.8,21,4,21h0.8
	v16.1c0,0.9,0.7,1.6,1.6,1.6h37.1c0.9,0,1.6-0.7,1.6-1.6V21.8c0.6-0.4,1.1-0.9,1.6-1.5V41.1z M21.8,41.9c0.4,0,0.8-0.4,0.8-0.8
	s-0.4-0.8-0.8-0.8S21,40.7,21,41.1S21.3,41.9,21.8,41.9z M25,41.9c0.4,0,0.8-0.4,0.8-0.8s-0.4-0.8-0.8-0.8s-0.8,0.4-0.8,0.8
	S24.6,41.9,25,41.9z M28.2,41.9c0.4,0,0.8-0.4,0.8-0.8s-0.4-0.8-0.8-0.8c-0.4,0-0.8,0.4-0.8,0.8S27.8,41.9,28.2,41.9z"/>
<linearGradient id="SVGID_2_" gradientUnits="userSpaceOnUse" x1="-93.0655" y1="0.4567" x2="-26.6404" y2="67.313">
	<stop  offset="0" style="stop-color:#21C3F1"/>
	<stop  offset="0.5975" style="stop-color:#A685D2"/>
	<stop  offset="1" style="stop-color:#7F40E5"/>
</linearGradient>
<path class="st1" d="M-27.1,35l-0.5-0.9c-5.8-9.5-16.4-15.5-27.6-15.5s-21.7,5.9-27.6,15.5l-0.5,0.9c-0.4,0.7-0.6,1.4-0.6,2.2
	s0.2,1.5,0.6,2.2l0.5,0.9c5.8,9.5,16.4,15.5,27.6,15.5s21.7-5.9,27.6-15.5l0.5-0.9c0.4-0.7,0.6-1.4,0.6-2.2S-26.7,35.6-27.1,35z
	 M-38.5,37.2c0,2.7-0.7,5.3-1.9,7.6v-3.9h-5.6V29.8h-1.9v-3.7h-3.7v-1.9h-1.9v1.9h-1.9v-3.7H-57v3.7h-1.9v-1.9h-1.9v1.9h-3.7v3.7
	h-1.9v7.4h-1.9v10.5c-2.3-2.9-3.7-6.5-3.7-10.5c0-9.2,7.5-16.7,16.7-16.7S-38.5,28-38.5,37.2z M-57,39v1.9h-9.3V39H-57z M-57,53.7
	c-3.5-0.4-6.7-1.9-9.3-4.2v-6.8h9.3V53.7z M-64.4,37.2v-5.6h16.7v9.3h-5.6v12.9c-0.6,0.1-1.2,0.1-1.9,0.1V37.2H-64.4z M-49.6,27.9
	v1.9h-13v-1.9H-49.6z M-44.1,49.6v-1.3h-1.9v1.9h1.2c-1.9,1.6-4.2,2.7-6.7,3.3V42.7h9.3v4.9C-42.8,48.3-43.4,49-44.1,49.6z
	 M-81.2,39.3l-0.5-0.9c-0.2-0.4-0.3-0.8-0.3-1.2s0.1-0.9,0.3-1.2l0.5-0.9c3.3-5.5,8.4-9.7,14.2-12.1c-4.1,3.4-6.7,8.5-6.7,14.2
	c0,5.7,2.6,10.8,6.7,14.2C-72.8,49-77.8,44.7-81.2,39.3z M-28.7,38.4l-0.5,0.9c-3.4,5.5-8.4,9.7-14.2,12.1c4.1-3.4,6.7-8.5,6.7-14.2
	c0-5.7-2.6-10.8-6.7-14.2c5.8,2.5,10.8,6.7,14.2,12.1l0.5,0.9c0.2,0.4,0.3,0.8,0.3,1.2S-28.4,38-28.7,38.4z M-55.2,16.8
	c10.5,0,20.6,5,27,13.3l1.5-1.1c-6.8-8.8-17.5-14-28.5-14c-11.1,0-21.7,5.2-28.5,14l1.5,1.1C-75.8,21.8-65.7,16.8-55.2,16.8z
	 M-49.6,44.6h1.9v1.9h-1.9V44.6z M-45.9,44.6h1.9v1.9h-1.9V44.6z M-49.6,48.3h1.9v1.9h-1.9V48.3z M-60.7,44.6h1.9v1.9h-1.9V44.6z
	 M-64.4,44.6h1.9v1.9h-1.9V44.6z M-64.4,48.3h1.9v1.9h-1.9V48.3z M-60.7,48.3h1.9v1.9h-1.9V48.3z M-58.9,33.5h1.9v1.9h-1.9V33.5z
	 M-55.2,33.5h1.9v1.9h-1.9V33.5z M-51.5,33.5h1.9v1.9h-1.9V33.5z M-62.6,33.5h1.9v1.9h-1.9V33.5z M-51.5,37.2h1.9V39h-1.9V37.2z
	 M-66.3,59.4c-1.5,0-2.8,1.2-2.8,2.8c0,1.5,1.2,2.8,2.8,2.8s2.8-1.2,2.8-2.8C-63.5,60.6-64.8,59.4-66.3,59.4z M-66.3,63.1
	c-0.5,0-0.9-0.4-0.9-0.9s0.4-0.9,0.9-0.9s0.9,0.4,0.9,0.9S-65.8,63.1-66.3,63.1z M-58.9,59.4c-1.5,0-2.8,1.2-2.8,2.8
	c0,1.5,1.2,2.8,2.8,2.8c1.5,0,2.8-1.2,2.8-2.8C-56.1,60.6-57.4,59.4-58.9,59.4z M-58.9,63.1c-0.5,0-0.9-0.4-0.9-0.9s0.4-0.9,0.9-0.9
	s0.9,0.4,0.9,0.9S-58.4,63.1-58.9,63.1z M-51.5,59.4c-1.5,0-2.8,1.2-2.8,2.8c0,1.5,1.2,2.8,2.8,2.8c1.5,0,2.8-1.2,2.8-2.8
	C-48.7,60.6-49.9,59.4-51.5,59.4z M-51.5,63.1c-0.5,0-0.9-0.4-0.9-0.9s0.4-0.9,0.9-0.9c0.5,0,0.9,0.4,0.9,0.9S-51,63.1-51.5,63.1z
	 M-44.1,59.4c-1.5,0-2.8,1.2-2.8,2.8c0,1.5,1.2,2.8,2.8,2.8c1.5,0,2.8-1.2,2.8-2.8C-41.3,60.6-42.5,59.4-44.1,59.4z M-44.1,63.1
	c-0.5,0-0.9-0.4-0.9-0.9s0.4-0.9,0.9-0.9s0.9,0.4,0.9,0.9S-43.6,63.1-44.1,63.1z"/>
</svg>
