<?xml version="1.0" encoding="utf-8"?>
<!-- Generator: Adobe Illustrator 25.0.0, SVG Export Plug-In . SVG Version: 6.00 Build 0)  -->
<svg version="1.1" id="Layer_1" xmlns="http://www.w3.org/2000/svg" xmlns:xlink="http://www.w3.org/1999/xlink" x="0px" y="0px"
	 viewBox="0 0 50 50" style="enable-background:new 0 0 50 50;" xml:space="preserve">
<style type="text/css">
	.st0{fill:url(#SVGID_1_);}
	.st1{fill:url(#SVGID_2_);}
</style>
<linearGradient id="SVGID_1_" gradientUnits="userSpaceOnUse" x1="-21.6316" y1="6.8959" x2="61.7982" y2="33.9833">
	<stop  offset="0" style="stop-color:#21C3F1"/>
	<stop  offset="0.5975" style="stop-color:#A685D2"/>
	<stop  offset="1" style="stop-color:#7F40E5"/>
</linearGradient>
<path class="st0" d="M18.5,14.5v1.7c-1.8,0.2-3.2,1.7-3.2,3.6c0,2,1.6,3.6,3.6,3.6h0.8c1.1,0,2,0.9,2,2c0,1.1-0.9,2-2,2H19
	c-1.1,0-2-0.9-2-2V25h-1.6v0.4c0,1.9,1.4,3.4,3.2,3.6v1.7h1.6V29c1.8-0.2,3.2-1.7,3.2-3.6c0-2-1.6-3.6-3.6-3.6H19c-1.1,0-2-0.9-2-2
	c0-1.1,0.9-2,2-2h0.8c1.1,0,2,0.9,2,2v0.4h1.6v-0.4c0-1.9-1.4-3.4-3.2-3.6v-1.7H18.5z M1.6,39.5v-2.4h12.9v-1.6H0v4c0,2.2,1.8,4,4,4
	h26.6v-1.6H4C2.7,41.9,1.6,40.8,1.6,39.5z M16.1,37.9c0,1.3,1.1,2.4,2.4,2.4h12.1v-1.6H18.5c-0.4,0-0.8-0.4-0.8-0.8v-0.8h12.9v-1.6
	H16.1V37.9z M6.5,38.7H4.8v1.6h1.6V38.7z M9.7,38.7H8.1v1.6h1.6V38.7z M12.9,38.7h-1.6v1.6h1.6V38.7z M3.2,4c0-1.3,1.1-2.4,2.4-2.4
	h38.7c1.3,0,2.4,1.1,2.4,2.4v22.6h1.6V4c0-2.2-1.8-4-4-4H5.6c-2.2,0-4,1.8-4,4v29.8h1.6V4z M45.2,25V4.8c0-0.9-0.7-1.6-1.6-1.6H6.5
	c-0.9,0-1.6,0.7-1.6,1.6v29h1.6v-29h37.1V25H45.2z M41.9,25.8v-17c0-1.3-1.1-2.4-2.4-2.4H21c-1.3,0-2.4,1.1-2.4,2.4v2.5
	c-5.8,0.4-10.5,5.3-10.5,11.2c0,6.2,5.1,11.3,11.3,11.3s11.3-5.1,11.3-11.3c0-6-4.6-10.8-10.5-11.2V8.9c0-0.4,0.4-0.8,0.8-0.8h18.5
	c0.4,0,0.8,0.4,0.8,0.8v17c-4.5,0.4-8.1,4.2-8.1,8.8v6.5c0,4.9,4,8.9,8.9,8.9c4.9,0,8.9-4,8.9-8.9v-6.5C50,30.1,46.4,26.3,41.9,25.8
	z M29,22.6c0,5.3-4.3,9.7-9.7,9.7s-9.7-4.3-9.7-9.7s4.3-9.7,9.7-9.7S29,17.2,29,22.6z M41.1,27.4c3.7,0,6.8,2.8,7.2,6.5h-4.8v-0.8
	c0-1.3-1.1-2.4-2.4-2.4c-1.3,0-2.4,1.1-2.4,2.4v0.8h-4.8C34.3,30.2,37.4,27.4,41.1,27.4z M41.9,33.1v3.2c0,0.4-0.4,0.8-0.8,0.8
	c-0.4,0-0.8-0.4-0.8-0.8v-3.2c0-0.4,0.4-0.8,0.8-0.8C41.6,32.3,41.9,32.6,41.9,33.1z M48.4,41.1c0,4-3.3,7.3-7.3,7.3
	s-7.3-3.3-7.3-7.3v-5.6h4.8v0.8c0,1.3,1.1,2.4,2.4,2.4c1.3,0,2.4-1.1,2.4-2.4v-0.8h4.8V41.1z"/>
<linearGradient id="SVGID_2_" gradientUnits="userSpaceOnUse" x1="-99.1293" y1="-0.5008" x2="-32.7042" y2="66.3556">
	<stop  offset="0" style="stop-color:#21C3F1"/>
	<stop  offset="0.5975" style="stop-color:#A685D2"/>
	<stop  offset="1" style="stop-color:#7F40E5"/>
</linearGradient>
<path class="st1" d="M-33.2,34l-0.5-0.9c-5.8-9.5-16.4-15.5-27.6-15.5S-83,23.6-88.8,33.1l-0.5,0.9c-0.4,0.7-0.6,1.4-0.6,2.2
	s0.2,1.5,0.6,2.2l0.5,0.9c5.8,9.5,16.4,15.5,27.6,15.5s21.7-5.9,27.6-15.5l0.5-0.9c0.4-0.7,0.6-1.4,0.6-2.2S-32.8,34.7-33.2,34z
	 M-44.6,36.2c0,2.7-0.7,5.3-1.9,7.6v-3.9H-52V28.8h-1.9v-3.7h-3.7v-1.9h-1.9v1.9h-1.9v-3.7h-1.9v3.7h-1.9v-1.9h-1.9v1.9h-3.7v3.7
	h-1.9v7.4h-1.9v10.5c-2.3-2.9-3.7-6.5-3.7-10.5c0-9.2,7.5-16.7,16.7-16.7S-44.6,27-44.6,36.2z M-63.1,38.1v1.9h-9.3v-1.9H-63.1z
	 M-63.1,52.8c-3.5-0.4-6.7-1.9-9.3-4.2v-6.8h9.3V52.8z M-70.5,36.2v-5.6h16.7v9.3h-5.6v12.9c-0.6,0.1-1.2,0.1-1.9,0.1V36.2H-70.5z
	 M-55.7,26.9v1.9h-13v-1.9H-55.7z M-50.1,48.6v-1.3H-52v1.9h1.2c-1.9,1.6-4.2,2.7-6.7,3.3V41.8h9.3v4.9
	C-48.8,47.4-49.5,48-50.1,48.6z M-87.2,38.3l-0.5-0.9c-0.2-0.4-0.3-0.8-0.3-1.2s0.1-0.9,0.3-1.2l0.5-0.9c3.3-5.5,8.4-9.7,14.2-12.1
	c-4.1,3.4-6.7,8.5-6.7,14.2c0,5.7,2.6,10.8,6.7,14.2C-78.9,48-83.9,43.8-87.2,38.3z M-34.7,37.4l-0.5,0.9
	c-3.3,5.5-8.4,9.7-14.2,12.1c4.1-3.4,6.7-8.5,6.7-14.2c0-5.7-2.6-10.8-6.7-14.2c5.8,2.5,10.8,6.7,14.2,12.1l0.5,0.9
	c0.2,0.4,0.3,0.8,0.3,1.2S-34.5,37.1-34.7,37.4z M-61.2,15.8c10.5,0,20.6,5,27,13.3l1.5-1.1c-6.8-8.8-17.5-14-28.5-14
	c-11.1,0-21.7,5.2-28.5,14l1.5,1.1C-81.8,20.8-71.7,15.8-61.2,15.8z M-55.7,43.6h1.9v1.9h-1.9V43.6z M-52,43.6h1.9v1.9H-52V43.6z
	 M-55.7,47.3h1.9v1.9h-1.9V47.3z M-66.8,43.6h1.9v1.9h-1.9V43.6z M-70.5,43.6h1.9v1.9h-1.9V43.6z M-70.5,47.3h1.9v1.9h-1.9V47.3z
	 M-66.8,47.3h1.9v1.9h-1.9V47.3z M-64.9,32.5h1.9v1.9h-1.9V32.5z M-61.2,32.5h1.9v1.9h-1.9V32.5z M-57.5,32.5h1.9v1.9h-1.9V32.5z
	 M-68.7,32.5h1.9v1.9h-1.9V32.5z M-57.5,36.2h1.9v1.9h-1.9V36.2z M-72.4,58.4c-1.5,0-2.8,1.2-2.8,2.8c0,1.5,1.2,2.8,2.8,2.8
	s2.8-1.2,2.8-2.8C-69.6,59.7-70.8,58.4-72.4,58.4z M-72.4,62.1c-0.5,0-0.9-0.4-0.9-0.9s0.4-0.9,0.9-0.9s0.9,0.4,0.9,0.9
	S-71.8,62.1-72.4,62.1z M-64.9,58.4c-1.5,0-2.8,1.2-2.8,2.8c0,1.5,1.2,2.8,2.8,2.8c1.5,0,2.8-1.2,2.8-2.8
	C-62.2,59.7-63.4,58.4-64.9,58.4z M-64.9,62.1c-0.5,0-0.9-0.4-0.9-0.9s0.4-0.9,0.9-0.9s0.9,0.4,0.9,0.9S-64.4,62.1-64.9,62.1z
	 M-57.5,58.4c-1.5,0-2.8,1.2-2.8,2.8c0,1.5,1.2,2.8,2.8,2.8c1.5,0,2.8-1.2,2.8-2.8C-54.8,59.7-56,58.4-57.5,58.4z M-57.5,62.1
	c-0.5,0-0.9-0.4-0.9-0.9s0.4-0.9,0.9-0.9c0.5,0,0.9,0.4,0.9,0.9S-57,62.1-57.5,62.1z M-50.1,58.4c-1.5,0-2.8,1.2-2.8,2.8
	c0,1.5,1.2,2.8,2.8,2.8c1.5,0,2.8-1.2,2.8-2.8C-47.4,59.7-48.6,58.4-50.1,58.4z M-50.1,62.1c-0.5,0-0.9-0.4-0.9-0.9s0.4-0.9,0.9-0.9
	s0.9,0.4,0.9,0.9S-49.6,62.1-50.1,62.1z"/>
</svg>
