<?xml version="1.0" encoding="utf-8"?>
<!-- Generator: Adobe Illustrator 25.0.0, SVG Export Plug-In . SVG Version: 6.00 Build 0)  -->
<svg version="1.1" id="Layer_1" xmlns="http://www.w3.org/2000/svg" xmlns:xlink="http://www.w3.org/1999/xlink" x="0px" y="0px"
	 viewBox="0 0 58 50" style="enable-background:new 0 0 58 50;" xml:space="preserve">
<style type="text/css">
	.st0{fill:url(#SVGID_1_);}
</style>
<linearGradient id="SVGID_1_" gradientUnits="userSpaceOnUse" x1="-9.1809" y1="-14.4864" x2="57.2442" y2="52.37">
	<stop  offset="0" style="stop-color:#21C3F1"/>
	<stop  offset="0.5975" style="stop-color:#A685D2"/>
	<stop  offset="1" style="stop-color:#7F40E5"/>
</linearGradient>
<path class="st0" d="M56.8,20l-0.5-0.9C50.4,9.6,39.9,3.7,28.7,3.7S7,9.6,1.1,19.2L0.6,20C0.2,20.7,0,21.4,0,22.2
	c0,0.8,0.2,1.5,0.6,2.2l0.5,0.9C7,34.8,17.5,40.7,28.7,40.7s21.7-5.9,27.6-15.5l0.5-0.9c0.4-0.7,0.6-1.4,0.6-2.2
	C57.4,21.4,57.2,20.7,56.8,20z M45.4,22.2c0,2.7-0.7,5.3-1.9,7.6v-3.9H38V14.8h-1.9v-3.7h-3.7V9.3h-1.9v1.9h-1.9V7.4h-1.9v3.7H25
	V9.3h-1.9v1.9h-3.7v3.7h-1.9v7.4h-1.9v10.5c-2.3-2.9-3.7-6.5-3.7-10.5C12,13,19.5,5.6,28.7,5.6S45.4,13,45.4,22.2z M26.9,24.1v1.9
	h-9.3v-1.9H26.9z M26.9,38.8c-3.5-0.4-6.7-1.9-9.3-4.2v-6.8h9.3V38.8z M19.4,22.2v-5.6h16.7v9.3h-5.6v12.9c-0.6,0.1-1.2,0.1-1.9,0.1
	V22.2H19.4z M34.3,13v1.9h-13V13H34.3z M39.8,34.6v-1.3H38v1.9h1.2c-1.9,1.6-4.2,2.7-6.7,3.3V27.8h9.3v4.9
	C41.1,33.4,40.5,34,39.8,34.6z M2.7,24.3l-0.5-0.9c-0.2-0.4-0.3-0.8-0.3-1.2S2,21.4,2.2,21l0.5-0.9c3.3-5.5,8.4-9.7,14.2-12.1
	c-4.1,3.4-6.7,8.5-6.7,14.2c0,5.7,2.6,10.8,6.7,14.2C11.1,34,6.1,29.8,2.7,24.3z M55.2,23.5l-0.5,0.9c-3.3,5.5-8.4,9.7-14.2,12.1
	c4.1-3.4,6.7-8.5,6.7-14.2c0-5.7-2.6-10.8-6.7-14.2c5.8,2.5,10.8,6.7,14.2,12.1l0.5,0.9c0.2,0.4,0.3,0.8,0.3,1.2
	S55.4,23.1,55.2,23.5z M28.7,1.9c10.5,0,20.6,5,27,13.3l1.5-1.1C50.4,5.2,39.8,0,28.7,0C17.6,0,7,5.2,0.2,14l1.5,1.1
	C8.1,6.8,18.2,1.9,28.7,1.9z M34.3,29.6h1.9v1.9h-1.9V29.6z M38,29.6h1.9v1.9H38V29.6z M34.3,33.3h1.9v1.9h-1.9V33.3z M23.1,29.6H25
	v1.9h-1.9V29.6z M19.4,29.6h1.9v1.9h-1.9V29.6z M19.4,33.3h1.9v1.9h-1.9V33.3z M23.1,33.3H25v1.9h-1.9V33.3z M25,18.5h1.9v1.9H25
	V18.5z M28.7,18.5h1.9v1.9h-1.9V18.5z M32.4,18.5h1.9v1.9h-1.9V18.5z M21.3,18.5h1.9v1.9h-1.9V18.5z M32.4,22.2h1.9v1.9h-1.9V22.2z
	 M17.6,44.4c-1.5,0-2.8,1.2-2.8,2.8c0,1.5,1.2,2.8,2.8,2.8s2.8-1.2,2.8-2.8C20.4,45.7,19.1,44.4,17.6,44.4z M17.6,48.1
	c-0.5,0-0.9-0.4-0.9-0.9s0.4-0.9,0.9-0.9c0.5,0,0.9,0.4,0.9,0.9S18.1,48.1,17.6,48.1z M25,44.4c-1.5,0-2.8,1.2-2.8,2.8
	c0,1.5,1.2,2.8,2.8,2.8c1.5,0,2.8-1.2,2.8-2.8C27.8,45.7,26.5,44.4,25,44.4z M25,48.1c-0.5,0-0.9-0.4-0.9-0.9s0.4-0.9,0.9-0.9
	c0.5,0,0.9,0.4,0.9,0.9S25.5,48.1,25,48.1z M32.4,44.4c-1.5,0-2.8,1.2-2.8,2.8c0,1.5,1.2,2.8,2.8,2.8c1.5,0,2.8-1.2,2.8-2.8
	C35.2,45.7,33.9,44.4,32.4,44.4z M32.4,48.1c-0.5,0-0.9-0.4-0.9-0.9s0.4-0.9,0.9-0.9c0.5,0,0.9,0.4,0.9,0.9S32.9,48.1,32.4,48.1z
	 M39.8,44.4c-1.5,0-2.8,1.2-2.8,2.8c0,1.5,1.2,2.8,2.8,2.8c1.5,0,2.8-1.2,2.8-2.8C42.6,45.7,41.3,44.4,39.8,44.4z M39.8,48.1
	c-0.5,0-0.9-0.4-0.9-0.9s0.4-0.9,0.9-0.9s0.9,0.4,0.9,0.9S40.3,48.1,39.8,48.1z"/>
</svg>
