<svg id="Layer_1" data-name="Layer 1" xmlns="http://www.w3.org/2000/svg" xmlns:xlink="http://www.w3.org/1999/xlink" viewBox="0 0 50 50">
  <defs>
    <style>
      .cls-1 {
        fill: url(#linear-gradient);
      }
    </style>
    <linearGradient id="linear-gradient" x1="6.68" y1="14.08" x2="43.32" y2="50.73" gradientUnits="userSpaceOnUse">
      <stop offset="0" stop-color="#21c3f1"/>
      <stop offset="0.6" stop-color="#a685d2"/>
      <stop offset="1" stop-color="#7f40e5"/>
    </linearGradient>
  </defs>
  <path class="cls-1" d="M1.36,41.61a1.25,1.25,0,0,1,1.05-.38c.49,0,1,0,1.47,0s.61,0,.61-.63V39.45q0-11.06,0-22.1a2.31,2.31,0,0,1,1-2.05A2.22,2.22,0,0,1,6.76,15h9a1.51,1.51,0,0,0,1-.31,1.86,1.86,0,0,1,1.92-.27c.3.12.47.08.63-.21q1.4-2.31,2.81-4.61A.4.4,0,0,0,22.07,9a2,2,0,0,1-.33-2.79c.48-.79,1-1.58,1.45-2.36A2,2,0,0,1,26,3.18q4,2.42,8,4.88a2,2,0,0,1,.69,2.82c-.49.85-1,1.69-1.54,2.52a2.05,2.05,0,0,1-2.82.72L30.08,14c-.14-.08-.29-.14-.39,0s0,.25.16.33a3.5,3.5,0,0,0,2,.69c3.75,0,7.5,0,11.25,0a2.14,2.14,0,0,1,2.39,2.4c0,2,0,4,0,5.95a.77.77,0,0,0,.44.78,8.51,8.51,0,0,1,.9.57,2.67,2.67,0,0,1-.8,4.78.6.6,0,0,0-.54.7q0,5.23,0,10.47c0,.44.14.6.58.58s1.14,0,1.71,0,.86.25.86.88,0,1.29,0,1.93a3,3,0,0,1-3,3.09h-41a3.17,3.17,0,0,1-2.83-1.36,10.33,10.33,0,0,1-.45-.95ZM22.09,24.76l-.59-.35c-2-1.24-4-2.48-6.06-3.71a2,2,0,0,1-1-1.27c-.08-.34-.26-.43-.59-.43-1.49,0-3,0-4.47,0-.69,0-.83.14-.83.85V37.72c0,.73.1.83.82.83H40.62c.69,0,.8-.11.8-.81,0-3.17,0-6.33,0-9.5a.82.82,0,0,0-.46-.81L28.21,19.65,27,18.91a.21.21,0,0,0-.32.06c-.09.14,0,.23.1.3l.23.16a2.08,2.08,0,0,1,.67,3c-.41.68-.82,1.37-1.25,2.05-.17.27-.13.37.2.37a11.91,11.91,0,0,1,1.89,0,5.45,5.45,0,0,1,4.59,4.34c.07.33.21.43.52.42.53,0,1,0,1.57,0a1.82,1.82,0,0,1,1.89,1.81c0,.84,0,1.69,0,2.53a1.8,1.8,0,0,1-1.62,1.79,6,6,0,0,1-.73,0q-9.73,0-19.47,0a4,4,0,0,1-.69,0A1.82,1.82,0,0,1,12.9,34c0-.81,0-1.63,0-2.44a1.84,1.84,0,0,1,1.92-1.84c.49,0,1,0,1.47,0s.53-.09.62-.48a5.34,5.34,0,0,1,2.36-3.44A7.34,7.34,0,0,1,22.09,24.76Zm2.89,21H45.61a1.52,1.52,0,0,0,1.66-1.39,9.73,9.73,0,0,0,0-1.43c0-.21-.11-.3-.31-.3H3.84c-1.17,0-1.17,0-1.17,1.17,0,1.39.58,2,2,2Zm0-4.52H43.45c.64,0,.65,0,.65-.64V30.26c0-1-.14-1.16-1-1.53-.2-.09-.28,0-.29.17v8.91a2,2,0,0,1-.63,1.62,2.33,2.33,0,0,1-1.72.51H9.54a5.06,5.06,0,0,1-.55,0,1.87,1.87,0,0,1-1.81-2q0-9.14,0-18.27a1.84,1.84,0,0,1,2-2c1.52,0,3-.05,4.57,0a1.42,1.42,0,0,0,1.58-.91c.21-.49.26-.47-.26-.47H7c-.87,0-1.09.23-1.09,1.1V40.55c0,.68,0,.68.7.68Zm0-6.74H35c.61,0,.74-.13.74-.73s0-1.35,0-2c0-.52-.15-.67-.68-.71H15.4a4.35,4.35,0,0,0-.51,0,.57.57,0,0,0-.61.65c0,.64,0,1.29,0,1.93s.08.88.87.88Zm21.6-7.63c0-.62-.39-1-.91-1.3q-5.05-3.06-10.09-6.14c-2.1-1.28-4.21-2.56-6.3-3.86-.32-.2-.49-.18-.68.17s-.53.86-.78,1.3c-.36.61-.49.51.23.95L41.69,26.3c1,.59,1.93,1.2,2.93,1.75A1.29,1.29,0,0,0,46.59,26.86ZM31.4,13.06a.71.71,0,0,0,.62-.35c.52-.85,1-1.7,1.55-2.56a.65.65,0,0,0-.17-.87,3.87,3.87,0,0,0-.53-.37L25.55,4.45c-.61-.37-.95-.3-1.34.32s-.81,1.34-1.22,2-.4,1.05.34,1.5l7.48,4.56A1.16,1.16,0,0,0,31.4,13.06Zm-4.7,8.19a.84.84,0,0,0-.46-.7l-7.67-4.68c-.61-.36-1-.26-1.34.34S16.37,17.6,16,18.3s-.27,1,.34,1.34l7.6,4.64A.79.79,0,0,0,25.16,24c.45-.72.88-1.44,1.32-2.17A1.21,1.21,0,0,0,26.7,21.25ZM25,29.69c2.11,0,4.21,0,6.32,0,.36,0,.5-.07.39-.47a4.13,4.13,0,0,0-3.4-2.93,49.32,49.32,0,0,0-6.08-.05,4.07,4.07,0,0,0-3.91,2.9c-.15.5-.12.55.41.55ZM28.55,13.2c0-.22-.17-.28-.29-.36l-4.37-2.66c-.29-.18-.44-.15-.62.15q-1.38,2.31-2.81,4.61c-.19.31-.1.45.17.61q2.19,1.32,4.37,2.67c.29.18.43.15.61-.15.93-1.54,1.87-3.07,2.81-4.61A1.57,1.57,0,0,0,28.55,13.2Zm4.74,3.13v.1c.52.32,1.06.62,1.57,1a1.81,1.81,0,0,0,1.08.3c1.65,0,3.29,0,4.94,0a1.83,1.83,0,0,1,1.93,1.9,12.2,12.2,0,0,1,0,1.71,1.22,1.22,0,0,0,.81,1.44c.45.2.49.21.49-.29V17.52c0-1-.19-1.19-1.18-1.19H33.29ZM37.73,19l0,.1,3.45,2.11c.2.13.28,0,.28-.17,0-.46,0-.92,0-1.38a.58.58,0,0,0-.65-.66Z"/>
</svg>
