<svg id="Layer_1" data-name="Layer 1" xmlns="http://www.w3.org/2000/svg" xmlns:xlink="http://www.w3.org/1999/xlink" viewBox="0 0 50 50">
  <defs>
    <style>
      .cls-1 {
        fill: url(#linear-gradient);
      }
    </style>
    <linearGradient id="linear-gradient" x1="3.31" y1="3.31" x2="46.68" y2="46.68" gradientUnits="userSpaceOnUse">
      <stop offset="0" stop-color="#21c3f1"/>
      <stop offset="0.6" stop-color="#a685d2"/>
      <stop offset="1" stop-color="#7f40e5"/>
    </linearGradient>
  </defs>
  <path class="cls-1" d="M43.93,48.76H14.23c-1.9-.78-2.32-1.41-2.32-3.51v-1.5H6.81a2.82,2.82,0,0,1-3.06-3.06q0-18.21,0-36.41a2.82,2.82,0,0,1,3-3H35a2.82,2.82,0,0,1,3.05,3v2h5.23a2.77,2.77,0,0,1,2.93,2.9q0,18.35,0,36.69A2.72,2.72,0,0,1,45,48.26,6.74,6.74,0,0,1,43.93,48.76Zm-7.7-13.55v-7.8c0-.77.43-1.21,1.08-1.11.5.07.78.47.78,1.15,0,2.76,0,5.53,0,8.3a1.69,1.69,0,0,1-.54,1.32q-3.07,3-6.13,6.13a1.75,1.75,0,0,1-1.36.55H13.77v1.78c0,1.1.27,1.37,1.36,1.37H43c1.11,0,1.38-.27,1.38-1.36V9.3c0-.85-.34-1.18-1.18-1.19H38.09V18.58c0,.76-.34,1.21-.92,1.22s-.94-.45-.94-1.24V4.41c0-1-.29-1.31-1.29-1.31H6.87c-1,0-1.27.31-1.27,1.29V40.62c0,1,.31,1.27,1.29,1.27H29.55V37.71A2.25,2.25,0,0,1,32,35.21Zm-1.42,1.85c-1,0-2,0-3,0-.15,0-.42.19-.43.3,0,1,0,2,0,3.08ZM31.26,10.15q1.29,0,1.32-.9c0-.62-.45-.95-1.32-.95H10.57a2.65,2.65,0,0,0-.69.07.82.82,0,0,0-.62.83.84.84,0,0,0,.62.88,2.29,2.29,0,0,0,.64.07H31.26Zm-20.69,3c-.87,0-1.33.34-1.32,1s.46.91,1.31.91H31.29A2.58,2.58,0,0,0,32,14.9a.9.9,0,0,0,0-1.7,2.65,2.65,0,0,0-.69-.07H10.57ZM31.26,19.8q1.29,0,1.32-.9c0-.61-.45-.95-1.32-.95H10.57a2.65,2.65,0,0,0-.69.07.82.82,0,0,0-.62.83.84.84,0,0,0,.62.88,2.29,2.29,0,0,0,.64.07H31.26ZM15.44,30.94A3.34,3.34,0,1,1,12.1,27.6,3.39,3.39,0,0,1,15.44,30.94Zm-3.36-1.48a1.48,1.48,0,1,0,1.5,1.45A1.48,1.48,0,0,0,12.08,29.46Zm7.45-4.83a2.91,2.91,0,0,0,.51,0,.93.93,0,0,0,.78-.9.94.94,0,0,0-.79-.9,2.91,2.91,0,0,0-.51,0H10.33a1,1,0,0,0-1,.63c-.21.66.24,1.21,1,1.22h9.19Zm1.57,7.24c1,0,2.07,0,3.11,0a.92.92,0,1,0,0-1.84c-2.1,0-4.21,0-6.31,0A.92.92,0,0,0,17,31a1,1,0,0,0,1.06.82Zm15.14-8.78a.92.92,0,1,0,.94-.89A.94.94,0,0,0,36.24,23.09Zm-12-.31a.92.92,0,1,0,.94.9A1,1,0,0,0,24.23,22.78Z"/>
</svg>
