<svg id="Layer_1" data-name="Layer 1" xmlns="http://www.w3.org/2000/svg" xmlns:xlink="http://www.w3.org/1999/xlink" viewBox="0 0 50 50">
  <defs>
    <style>
      .cls-1 {
        fill: url(#linear-gradient);
      }
    </style>
    <linearGradient id="linear-gradient" x1="5.23" y1="5.21" x2="44.76" y2="44.74" gradientUnits="userSpaceOnUse">
      <stop offset="0" stop-color="#21c3f1"/>
      <stop offset="0.6" stop-color="#a685d2"/>
      <stop offset="1" stop-color="#7f40e5"/>
    </linearGradient>
  </defs>
  <path class="cls-1" d="M25,1.42h14.7A2.34,2.34,0,0,1,42.3,4c0,1.38,0,2.76,0,4.15,0,.44.14.6.59.59,1,0,2,0,3,0a1.08,1.08,0,0,1,.82.35,1.06,1.06,0,0,1-.19.86c-.69,1.1-1.4,2.19-2.16,3.24a.91.91,0,0,0,0,1.22c.76,1.12,1.48,2.26,2.19,3.41.14.23.29.65.18.81a1.1,1.1,0,0,1-.81.34c-1,0-2,0-3,0-.49,0-.62.16-.61.62,0,3.5,0,7,0,10.5V45.88a2.41,2.41,0,0,1-2.68,2.7H10.3a2.36,2.36,0,0,1-2.41-1.47A3,3,0,0,1,7.72,46V20a3.53,3.53,0,0,1,0-.46c0-.4-.12-.54-.53-.54q-1.56,0-3.12,0c-.26,0-.66-.11-.74-.28a1.06,1.06,0,0,1,.12-.84c.73-1.19,1.48-2.37,2.27-3.53a.82.82,0,0,0,0-1.06C5,12.18,4.2,11.08,3.49,10a1.1,1.1,0,0,1-.17-.87,1.12,1.12,0,0,1,.83-.34c1-.05,1.94-.05,2.92,0,.53,0,.67-.18.66-.68,0-1.42,0-2.84,0-4.25A2.22,2.22,0,0,1,10.1,1.43Zm-.07,45.94h14.8c1,0,1.39-.38,1.39-1.35q0-13.21,0-26.43c0-.48-.17-.6-.62-.6-1.91,0-3.83,0-5.74,0-.67,0-.82-.15-.82-.81,0-.85,0-1.71,0-2.56,0-.49-.15-.64-.64-.64-2.29,0-4.58,0-6.86,0H16.74c-.68,0-.68,0-.68.69v2.41c0,.72-.19.9-.92.9H9.61c-.73,0-.73,0-.73.74V45.9c0,1.14.32,1.46,1.47,1.46Zm0-33.53c3.74,0,7.48,0,11.22,0,.48,0,.65-.13.65-.63,0-2.22,0-4.44,0-6.66,0-.51-.15-.68-.67-.68q-11.16,0-22.33,0c-.48,0-.65.14-.64.64,0,2.2,0,4.4,0,6.6,0,.71,0,.72.7.72ZM25,2.59H10.11a1.09,1.09,0,0,0-1.22,1.2c0,1.47,0,2.94,0,4.41,0,.36.11.53.5.52h2.15c.38,0,.51-.14.51-.51,0-.91,0-1.81,0-2.72,0-.51.16-.72.66-.77H37.21c.59,0,.78.24.78.84,0,.85,0,1.71,0,2.56,0,.43.13.63.59.61.66,0,1.33,0,2,0,.46,0,.6-.16.59-.6,0-1.35,0-2.7,0-4.05,0-1.12-.38-1.49-1.51-1.49ZM4.91,17.75a1.67,1.67,0,0,0,.31.07h9.27c.31,0,.41-.15.41-.44q0-1,0-2c0-.33-.12-.46-.45-.45H12.86c-.64,0-.82-.18-.83-.82,0-1.2,0-2.39,0-3.59,0-.49-.15-.65-.64-.64-2,0-4,0-5.94,0-.14,0-.29,0-.51,0,.12.2.2.35.29.48.58.89,1.15,1.78,1.76,2.64a1,1,0,0,1,0,1.34c-.47.67-.89,1.37-1.34,2.06C5.43,16.91,5.19,17.31,4.91,17.75Zm40.2.05-.32-.53c-.62-1-1.22-1.93-1.86-2.88a1,1,0,0,1,0-1.21c.61-.87,1.19-1.76,1.77-2.64.1-.15.19-.31.31-.51a2,2,0,0,0-.36-.08h-6.2c-.4,0-.48.21-.48.55,0,1.21,0,2.43,0,3.64,0,.66-.22.85-.87.86H35.58c-.33,0-.47.12-.46.45,0,.58,0,1.16,0,1.74s.18.66.68.66c2.91,0,5.81,0,8.71,0ZM33.46,31.2l.08-.18c.13-1.19.13-1.19,1.33-1.19h2.3c.63,0,.83.23.83.85v8.46c0,.57-.18.79-.76.81q-1.45,0-2.91,0c-.57,0-.78-.23-.76-.81s-.16-.58-.6-.52a9.09,9.09,0,0,1-1.28,0,.43.43,0,0,0-.5.39,1.8,1.8,0,0,1-1.43,1.44.71.71,0,0,0-.41.37A2,2,0,0,1,28,42a.88.88,0,0,0-.49.42,2,2,0,0,1-1.29,1.16,1,1,0,0,0-.52.46,1.92,1.92,0,0,1-3,.71c-1.36-1.15-2.68-2.33-4-3.5-.31-.27-.63-.53-.91-.82a1.15,1.15,0,0,0-1.1-.23c-.11,0-.24.23-.27.37a.72.72,0,0,1-.81.61H12.76c-.58,0-.8-.23-.81-.82V31.06c0-.65.22-.84.88-.85h2.81c.42,0,.71.13.78.57s.23.38.51.38c1.21,0,2.42,0,3.63,0a1.26,1.26,0,0,0,.62-.2A8.46,8.46,0,0,1,29,30.12q1.55.54,3.12,1A7.76,7.76,0,0,0,33.46,31.2Zm-13.9,1.12c-.91,0-1.73,0-2.54,0-.42,0-.58.14-.57.56,0,1.87,0,3.73,0,5.59,0,.45.16.63.6.58a1.71,1.71,0,0,1,1.44.48c1,.88,2,1.72,2.92,2.57.68.6,1.35,1.21,2.05,1.78a.74.74,0,0,0,1.06-.06c.28-.4,0-.62-.29-.85l-2.3-2a.56.56,0,0,1-.11-.86c.26-.3.57-.24.86,0l1.43,1.24a15.44,15.44,0,0,0,1.25,1.05.71.71,0,0,0,1-.17c.23-.38-.07-.56-.3-.76-.75-.67-1.5-1.34-2.26-2-.3-.26-.51-.54-.2-.91s.62-.25.93,0c.77.68,1.53,1.37,2.32,2a1.53,1.53,0,0,0,.82.31.63.63,0,0,0,.49-.34A.62.62,0,0,0,28,40c-.24-.27-.53-.48-.79-.72l-1.7-1.49a.56.56,0,0,1-.1-.86.53.53,0,0,1,.85,0l.66.57c.63.55,1.25,1.12,1.89,1.65a.77.77,0,0,0,1.11,0c.32-.41-.06-.62-.29-.84l-3.94-3.51c-1-.88-1-.88-2.05,0l0,0a8.29,8.29,0,0,1-3.39,1.73A1.4,1.4,0,0,1,18.5,35a4.42,4.42,0,0,1,.35-1.42A10.53,10.53,0,0,1,19.56,32.32Zm14,2.59c0-.66,0-1.33,0-2,0-.36-.11-.53-.49-.55a12.24,12.24,0,0,1-4.19-1,7.78,7.78,0,0,0-4-.56A6.25,6.25,0,0,0,20,33.91a4.14,4.14,0,0,0-.25,1.24A3.27,3.27,0,0,0,21,35c1-.64,2-1.35,3-2.09.62-.46.77-.5,1.35,0,1.62,1.43,3.24,2.87,4.89,4.28a1.31,1.31,0,0,0,.82.28c.64,0,1.29-.05,1.94,0,.41,0,.59-.13.57-.56C33.54,36.21,33.56,35.56,33.56,34.91Zm-18.33.81v-3c0-1.39,0-1.39-1.38-1.37-.66,0-.68,0-.68.7v6.5c0,1.5,0,1.48,1.49,1.48.46,0,.58-.17.58-.6C15.22,38.21,15.23,37,15.23,35.72Zm19.49-.88c0,1.11,0,2.22,0,3.33,0,.45.16.61.6.58a4.71,4.71,0,0,1,.92,0c.47,0,.62-.15.62-.62,0-1.86,0-3.72,0-5.58,0-1.6,0-1.59-1.59-1.57-.4,0-.55.13-.54.53C34.73,32.62,34.72,33.73,34.72,34.84Zm2.13-13.52a1.6,1.6,0,0,0,.7-.07.83.83,0,0,0,.4-.56c0-.16-.21-.4-.39-.5a1.39,1.39,0,0,0-.65-.09H13.14a1.63,1.63,0,0,0-.7.09c-.18.09-.42.33-.41.5a.83.83,0,0,0,.41.55,1.67,1.67,0,0,0,.75.08H36.85ZM13,26.32a1.29,1.29,0,0,0-.56,0c-.18.1-.43.3-.44.46a.93.93,0,0,0,.36.59c.13.1.36.07.55.07q12,0,24.06,0c.19,0,.42,0,.55-.07s.42-.39.4-.55-.3-.39-.51-.51-.33,0-.5,0H13Zm.07-3.08a1.48,1.48,0,0,0-.56,0c-.2.1-.5.3-.5.46s.22.45.4.61.32.07.49.07H37c.69,0,1-.21,1-.62s-.25-.54-1-.54H13.1Zm18-5a1.35,1.35,0,0,0,.64-.09.78.78,0,0,0,.37-.53.87.87,0,0,0-.38-.52A1,1,0,0,0,31.2,17Q25,17,18.82,17c-.69,0-1,.19-1,.59s.32.63,1,.63H31.12ZM16.82,9.3H14.68l1.73,1.26-.66,2,1.73-1.26,1.73,1.26-.66-2L20.28,9.3H18.14l-.66-2Zm7.29,0H22l1.73,1.26-.66,2,1.73-1.26,1.73,1.26-.66-2L27.57,9.3H25.43l-.66-2Zm7.53,0H29.51l1.72,1.26-.66,2,1.73-1.26L34,12.59l-.66-2L35.1,9.3H33l-.66-2Z"/>
</svg>
