<svg id="Layer_1" data-name="Layer 1" xmlns="http://www.w3.org/2000/svg" xmlns:xlink="http://www.w3.org/1999/xlink" viewBox="0 0 50 50">
  <defs>
    <style>
      .cls-1 {
        fill: url(#linear-gradient);
      }
    </style>
    <linearGradient id="linear-gradient" x1="-10.97" y1="63.16" x2="53.52" y2="-1.33" gradientTransform="matrix(1, 0, 0, -1, 0, 49.89)" gradientUnits="userSpaceOnUse">
      <stop offset="0" stop-color="#21c3f1"/>
      <stop offset="0.6" stop-color="#a685d2"/>
      <stop offset="1" stop-color="#7f40e5"/>
    </linearGradient>
  </defs>
  <path class="cls-1" d="M18.89,15.08v1.6a3.4,3.4,0,0,0,.37,6.77H20a1.88,1.88,0,0,1,0,3.76h-.66a1.88,1.88,0,0,1-1.88-1.88V25H16v.38a3.36,3.36,0,0,0,3,3.38v1.6h1.51v-1.6a3.4,3.4,0,0,0-.38-6.77h-.75a1.88,1.88,0,1,1,0-3.76h.75A1.89,1.89,0,0,1,22,20.06v.38H23.5v-.38a3.38,3.38,0,0,0-3-3.38v-1.6ZM3,38.59V36.33H15.13v-1.5H1.49v3.76a3.77,3.77,0,0,0,3.76,3.76h25v-1.5h-25A2.3,2.3,0,0,1,3,38.59Zm13.64-1.51a2.28,2.28,0,0,0,2.26,2.26H30.27v-1.5H18.89a.82.82,0,0,1-.76-.76v-.75H30.27v-1.5H16.63Zm-9,.76H6v1.5H7.51v-1.5Zm3,0H9.11v1.5h1.5Zm3,0h-1.5v1.5h1.5ZM4.5,5.2A2.28,2.28,0,0,1,6.76,3H43.15A2.29,2.29,0,0,1,45.41,5.2V26.46h1.5V5.2a3.77,3.77,0,0,0-3.76-3.76H6.76A3.78,3.78,0,0,0,3,5.2v28H4.5ZM44,25V6a1.49,1.49,0,0,0-1.51-1.51H7.6A1.49,1.49,0,0,0,6.1,6V33.23H7.6V6H42.49V25Zm-3.11.76v-16a2.29,2.29,0,0,0-2.25-2.26H21.24A2.3,2.3,0,0,0,19,9.72v2.35A10.59,10.59,0,1,0,30.36,22.6a10.52,10.52,0,0,0-9.87-10.53V9.81a.81.81,0,0,1,.75-.75h17.4a.81.81,0,0,1,.75.75v16a8.38,8.38,0,0,0-7.62,8.28v6.11a8.37,8.37,0,0,0,16.74,0V34.08A8.52,8.52,0,0,0,40.89,25.71Zm-12.13-3a9.12,9.12,0,1,1-9.12-9.13A9.13,9.13,0,0,1,28.76,22.7Zm11.38,4.51a6.81,6.81,0,0,1,6.77,6.11H42.4v-.75a2.26,2.26,0,1,0-4.52,0v.75H33.37A6.82,6.82,0,0,1,40.14,27.21Zm.75,5.36v3a.75.75,0,0,1-1.5,0v-3a.8.8,0,0,1,.75-.75A.69.69,0,0,1,40.89,32.57ZM47,40.09a6.87,6.87,0,1,1-13.73,0V34.83h4.51v.75a2.26,2.26,0,1,0,4.51,0v-.75h4.52v5.26Z"/>
</svg>
