<svg id="Layer_1" data-name="Layer 1" xmlns="http://www.w3.org/2000/svg" xmlns:xlink="http://www.w3.org/1999/xlink" viewBox="0 0 50 50">
  <defs>
    <style>
      .cls-1 {
        fill: url(#linear-gradient);
      }
    </style>
    <linearGradient id="linear-gradient" x1="6.65" y1="9.51" x2="37.29" y2="40.14" gradientUnits="userSpaceOnUse">
      <stop offset="0" stop-color="#21c3f1"/>
      <stop offset="0.6" stop-color="#a685d2"/>
      <stop offset="1" stop-color="#7f40e5"/>
    </linearGradient>
  </defs>
  <path class="cls-1" d="M25,29.47h0a6,6,0,0,0,4.15-10.18A5.86,5.86,0,0,0,25,17.57h0a6,6,0,0,0-4.15,10.17A5.86,5.86,0,0,0,25,29.47Zm0-10.6h0a4.63,4.63,0,0,1,4.6,4.66A4.62,4.62,0,0,1,25,28.17h0a4.64,4.64,0,0,1-4.62-4.66A4.64,4.64,0,0,1,25,18.87Zm-9.56-1c.14.15.28.3.43.44s.29.29.43.45A1.11,1.11,0,0,1,16.58,20a1.16,1.16,0,0,1-.95.79,5.19,5.19,0,0,1-.88,0h-.5a1.39,1.39,0,0,0-1.48,1.45c0,.84,0,1.68,0,2.51a1.4,1.4,0,0,0,1.5,1.49h.43a5.49,5.49,0,0,1,.91.05,1.14,1.14,0,0,1,1,.8,1.12,1.12,0,0,1-.3,1.24c-.14.16-.29.31-.43.45l-.36.36a1.38,1.38,0,0,0,0,2.14q.86.88,1.74,1.74a1.42,1.42,0,0,0,2.15,0l.41-.41.41-.4a1.2,1.2,0,0,1,2,.84c0,.2,0,.4,0,.6s0,.35,0,.54a1.45,1.45,0,0,0,1.44,1.55c.44,0,.87,0,1.31,0l1.33,0a1.43,1.43,0,0,0,1.43-1.51c0-.2,0-.4,0-.6a5.76,5.76,0,0,1,0-.59A1.1,1.1,0,0,1,28.5,32a1.13,1.13,0,0,1,1.31.23l.43.42.41.41a1.43,1.43,0,0,0,2.12,0q.9-.87,1.77-1.77a1.39,1.39,0,0,0,0-2.11l-.4-.4c-.16-.15-.32-.31-.47-.47a1.21,1.21,0,0,1,.72-2,5.8,5.8,0,0,1,.93-.05h.38a1.41,1.41,0,0,0,1.53-1.5c0-.82,0-1.65,0-2.47a1.4,1.4,0,0,0-1.49-1.48h-.49a4.13,4.13,0,0,1-.86,0,1.15,1.15,0,0,1-1-.8,1.14,1.14,0,0,1,.31-1.27l.39-.39.46-.47a1.35,1.35,0,0,0,0-2c-.61-.64-1.24-1.27-1.88-1.88a1.38,1.38,0,0,0-2,0c-.2.18-.39.37-.57.56l-.3.3a1.13,1.13,0,0,1-1.34.28A1.09,1.09,0,0,1,27.77,14v-.39c0-.28,0-.56,0-.84a1.38,1.38,0,0,0-1.46-1.4H23.74a1.38,1.38,0,0,0-1.48,1.44c0,.23,0,.47,0,.71s0,.36,0,.54a1.07,1.07,0,0,1-.72,1.06,1.15,1.15,0,0,1-1.31-.24l-.55-.54L19.37,14a1.53,1.53,0,0,0-1.11-.47,1.43,1.43,0,0,0-1,.44l-.4.39c-.49.48-1,1-1.44,1.45A1.34,1.34,0,0,0,15.44,17.83Zm.93-1.12c.46-.48.93-1,1.41-1.42l.4-.4c.06-.06.09-.06.11-.06h0s.06,0,.16.09l.28.28c.19.2.39.39.59.58a2.39,2.39,0,0,0,2.69.48,2.36,2.36,0,0,0,1.52-2.21v-.58c0-.22,0-.44,0-.66s0-.16,0-.17l.19,0c.84,0,1.68,0,2.52,0h.15a.29.29,0,0,1,0,.16c0,.26,0,.51,0,.76V14a2.5,2.5,0,0,0,4.28,1.76l.32-.32c.17-.17.34-.34.52-.5l.23,0c.63.6,1.24,1.21,1.91,1.92a.36.36,0,0,1-.09.14l-.42.43-.42.42a2.47,2.47,0,0,0-.59,2.61,2.42,2.42,0,0,0,2,1.63,5.74,5.74,0,0,0,1.09.06h.44l.21,0h0a.76.76,0,0,1,0,.19c0,.8,0,1.61,0,2.42a1.41,1.41,0,0,1,0,.18.81.81,0,0,1-.25,0h-.36a8.26,8.26,0,0,0-1.11.06,2.43,2.43,0,0,0-2,1.57,2.37,2.37,0,0,0,.47,2.58c.17.19.34.36.52.54l.36.36c.09.1.12.15.13.16a.43.43,0,0,1-.12.15c-.57.6-1.15,1.18-1.74,1.75a.61.61,0,0,1-.15.11s-.07,0-.18-.13l-.37-.36c-.16-.17-.32-.33-.49-.48A2.5,2.5,0,0,0,26.48,33c0,.22,0,.44,0,.66v.54c0,.16,0,.22-.19.26a22.09,22.09,0,0,1-2.68,0,.44.44,0,0,1-.05-.26c0-.16,0-.33,0-.49s0-.45,0-.67A2.42,2.42,0,0,0,22,30.78a2.43,2.43,0,0,0-2.68.51c-.15.14-.29.29-.44.44l-.37.37a.71.71,0,0,1-.19.13s-.06,0-.17-.13c-.58-.56-1.15-1.13-1.72-1.71-.09-.09-.12-.15-.13-.15a.64.64,0,0,1,.15-.19l.32-.33c.17-.17.34-.33.5-.51A2.5,2.5,0,0,0,15.83,25,7.09,7.09,0,0,0,14.71,25h-.4a1,1,0,0,1-.21,0,.42.42,0,0,1,0-.19q0-1.23,0-2.46a.44.44,0,0,1,0-.15.49.49,0,0,1,.2,0h.45A6,6,0,0,0,15.86,22a2.5,2.5,0,0,0,1.4-4.18c-.15-.17-.31-.33-.48-.49s-.27-.26-.39-.4S16.28,16.8,16.37,16.71Zm19,19.52-1.52.87c-1.32.76-2.65,1.52-4,2.29-.18.11-.37.21-.55.3a6,6,0,0,0-1.56,1.05,3,3,0,0,1-1.46.84L23,42.46a4,4,0,0,1-1.29.19h0a2.12,2.12,0,0,1-1-.13,4.51,4.51,0,0,0,1.93,0l1.2-.32,2.6-.69a2.47,2.47,0,1,0-1.26-4.78c-.77.19-1.53.4-2.29.61a4.48,4.48,0,0,1-3.68-.48c-.37-.23-.75-.44-1.13-.66-.53-.3-1.06-.6-1.58-.93a3.33,3.33,0,0,0-3-.35l-1.13.4q-.63.24-1.26.45a1,1,0,0,0-.69,1.33q1.23,4.57,2.45,9.15a1.11,1.11,0,0,0,1.24.9,10.63,10.63,0,0,1,2.9.26l1.89.49c.63.17,1.27.34,1.91.49a3.32,3.32,0,0,0,.83.11,3.76,3.76,0,0,0,1.9-.54L33,42.45l4.5-2.6a2.26,2.26,0,0,0,1.09-1.39,2.07,2.07,0,0,0-.23-1.59A2.14,2.14,0,0,0,35.34,36.23Zm2,1.9a1,1,0,0,1-.5.6l-4.48,2.6L22.84,46.8a2.28,2.28,0,0,1-1.77.3c-.63-.15-1.26-.32-1.89-.48l-1.91-.5a11.12,11.12,0,0,0-2.68-.31h-.53c-.79-3-1.58-5.92-2.39-8.92.37-.12.73-.25,1.09-.39l1.11-.39a2.06,2.06,0,0,1,1.9.21c.54.35,1.09.66,1.65,1l1.09.64a5.78,5.78,0,0,0,4.7.62c.75-.21,1.49-.41,2.25-.6a1.18,1.18,0,0,1,1.5.81,1.19,1.19,0,0,1-.9,1.46l-2.58.69-1.21.32a3.42,3.42,0,0,1-1.39,0,1.41,1.41,0,0,0-1.21.31,1.33,1.33,0,0,0-.38,1.12,1.23,1.23,0,0,0,.95,1.12,4.46,4.46,0,0,0,1.43.16,5.84,5.84,0,0,0,1.68-.24l3.27-.87a4.33,4.33,0,0,0,2.06-1.19,4.86,4.86,0,0,1,1.23-.81c.2-.1.41-.21.61-.33q2-1.15,3.95-2.28L36,37.35a.85.85,0,0,1,1.21.18A.77.77,0,0,1,37.3,38.13ZM12.55,45.49l-2.5-9.32a1.24,1.24,0,0,0-1.75-1l-1.08.29c-1,.29-1.32.8-1,1.86l3,11a1.22,1.22,0,0,0,1.22,1h.1l1.65-.45a1.25,1.25,0,0,0,.84-.59,1.29,1.29,0,0,0,.09-1C12.87,46.7,12.71,46.1,12.55,45.49Zm-2.16,2.56L7.43,37l0-.21.2-.07,1-.28.14,0s0,.08,0,.14l2.5,9.32c.16.61.32,1.22.49,1.85ZM22.87,5.46h.06c0,.39,0,.78,0,1.16V8.69c0,1.08.44,1.52,1.5,1.53H25.6c1,0,1.48-.46,1.49-1.49V5.46h.15a1.11,1.11,0,0,0,1.05-.59,1.07,1.07,0,0,0-.23-1.2l-.28-.36c-.54-.69-1.07-1.37-1.62-2A1.51,1.51,0,0,0,25,.62h0a1.48,1.48,0,0,0-1.15.65c-.53.66-1.05,1.32-1.56,2l-.37.47a1,1,0,0,0-.18,1.18A1.15,1.15,0,0,0,22.87,5.46Zm.45-1.41c.51-.66,1-1.31,1.54-2A1.76,1.76,0,0,1,25,1.93a.66.66,0,0,1,.15.15c.54.67,1.07,1.35,1.6,2l.07.09c-.81.09-1,.42-1,1.37V8.92H24.24a1.29,1.29,0,0,1,0-.25V6.61c0-.43,0-.87,0-1.3a1.15,1.15,0,0,0-.32-.88,1,1,0,0,0-.68-.26ZM9.44,12.65a1.07,1.07,0,0,0,1.05-.15,2.61,2.61,0,0,0,.31-.27c.71.74,1.44,1.45,2.16,2.17l.23.22a1.37,1.37,0,0,0,.94.47,1.36,1.36,0,0,0,.93-.45c.34-.33.68-.66,1-1a1.24,1.24,0,0,0,0-2L14.42,10l-.57-.57-.13-.13.15-.16a1.07,1.07,0,0,0,.31-1.07,1.11,1.11,0,0,0-1-.76L9.83,6.93h0a1.21,1.21,0,0,0-.93.37,1.32,1.32,0,0,0-.4,1,28.41,28.41,0,0,0,.4,3.54A1,1,0,0,0,9.44,12.65Zm3.22-4.08c-.54.68-.45,1.06.27,1.79l.57.56c.55.54,1.09,1.09,1.62,1.63l.09.1-.08.09c-.32.32-.64.65-1,1l0,0,0,0-.23-.22c-.75-.74-1.5-1.48-2.22-2.24a1.26,1.26,0,0,0-.88-.45h-.06a1,1,0,0,0-.66.32,22.84,22.84,0,0,1-.28-2.88Zm22.17,5.89a1.66,1.66,0,0,0,1.08.63A1.64,1.64,0,0,0,37,14.48l.48-.49,1.76-1.76a.76.76,0,0,1,.09.09,1.12,1.12,0,0,0,1.19.33,1.1,1.1,0,0,0,.69-1l.36-2.87V8.71a1.76,1.76,0,0,0-.48-1.43A1.52,1.52,0,0,0,39.8,7c-.73.1-1.46.18-2.19.27L37,7.31a1.25,1.25,0,0,0-1.11.7,1,1,0,0,0,.42,1.3c-.73.7-1.44,1.42-2.15,2.15l-.21.21a1.18,1.18,0,0,0,0,1.91Zm0-1.88.21-.22c.72-.73,1.44-1.46,2.18-2.17a1.26,1.26,0,0,0,.46-.93,1.1,1.1,0,0,0-.3-.69l.34,0L40,8.26a.69.69,0,0,1,.18,0h.06a1,1,0,0,1,0,.41L40,11.11a.94.94,0,0,0-.66-.33,1.1,1.1,0,0,0-.84.38c-.63.64-1.26,1.28-1.9,1.91l-.49.49-.15.14-.16-.16-.88-.87,0-.05ZM7,25.94a2.36,2.36,0,0,0,0-.38c.58,0,1.17,0,1.75,0H9.86c.73,0,1.15,0,1.49-.33s.34-.79.33-1.54v-.85c0-1-.41-1.37-1.41-1.38H7.4a1.35,1.35,0,0,0-.34,0H7a1.56,1.56,0,0,0,0-.37,1.1,1.1,0,0,0-.66-.91,1,1,0,0,0-1,.17c-.92.7-1.83,1.41-2.72,2.15a1.26,1.26,0,0,0-.48,1,1.34,1.34,0,0,0,.5,1c.88.73,1.77,1.43,2.68,2.12A1.13,1.13,0,0,0,6,26.9a1,1,0,0,0,.35-.06A1.12,1.12,0,0,0,7,25.94ZM3.41,23.53c.74-.62,1.49-1.22,2.26-1.8a1,1,0,0,0,.41.84,1.61,1.61,0,0,0,1.1.21l.21,0h3s0,.06,0,.1v.85c0,.2,0,.41,0,.55H7a1.25,1.25,0,0,0-1,.35,1,1,0,0,0-.26.71C4.92,24.75,4.16,24.15,3.41,23.53Zm2.27,2.23a.32.32,0,0,1,.17-.14H6ZM6,25.55l.38-.05-.29.11Zm41.2-3.27c-.66-.53-1.33-1.05-2.12-1.67a1.22,1.22,0,0,0-1.33-.37A1.12,1.12,0,0,0,43,21.47H39.66a1.18,1.18,0,0,0-1.32,1.33c0,.47,0,.94,0,1.41,0,1,.42,1.35,1.39,1.36h3.21a.34.34,0,0,1,.1,0v.13a1.14,1.14,0,0,0,.57,1.06.92.92,0,0,0,.48.13,1.37,1.37,0,0,0,.83-.35l2.26-1.78a1.67,1.67,0,0,0,.73-1.24A1.65,1.65,0,0,0,47.16,22.28Zm-.8,1.47c-.65.52-1.31,1-2,1.61-.08-.86-.41-1.09-1.38-1.09h-3.3v-.08c0-.45,0-.91,0-1.36v-.06H43.2a1.15,1.15,0,0,0,.83-.28,1.06,1.06,0,0,0,.3-.77l0,0c.67.51,1.33,1,2,1.55.16.13.22.21.24.22A1.17,1.17,0,0,1,46.36,23.75ZM23.2,22.87a1.56,1.56,0,0,1,1.06-1.94.28.28,0,0,0,.19-.28c.06-.4.26-.6.56-.61s.5.2.53.62c0,.21.15.25.31.3a1.34,1.34,0,0,1,.95,1.13.58.58,0,0,1-.41.71.51.51,0,0,1-.64-.45.44.44,0,0,0-.5-.39h-.41c-.47,0-.59.13-.58.59s.13.46.48.47h.68a1.38,1.38,0,0,1,1.37,1.14,1.59,1.59,0,0,1-1,2c-.16,0-.19.16-.21.31-.06.39-.24.57-.54.57s-.51-.19-.55-.57c0-.21-.13-.28-.31-.34A1.36,1.36,0,0,1,23.2,25a.56.56,0,0,1,.41-.68.51.51,0,0,1,.64.44.41.41,0,0,0,.48.37h.51c.41,0,.49-.1.5-.51s-.07-.5-.5-.51a7.3,7.3,0,0,1-.81,0A1.39,1.39,0,0,1,23.2,22.87Z"/>
</svg>
