<svg id="Layer_1" data-name="Layer 1" xmlns="http://www.w3.org/2000/svg" xmlns:xlink="http://www.w3.org/1999/xlink" viewBox="0 0 50 50">
  <defs>
    <style>
      .cls-1 {
        fill: url(#linear-gradient);
      }
    </style>
    <linearGradient id="linear-gradient" x1="5.71" y1="4.28" x2="47.55" y2="46.12" gradientUnits="userSpaceOnUse">
      <stop offset="0" stop-color="#21c3f1"/>
      <stop offset="0.6" stop-color="#a685d2"/>
      <stop offset="1" stop-color="#7f40e5"/>
    </linearGradient>
  </defs>
  <path class="cls-1" d="M32.46,23a1.21,1.21,0,0,0-.56-.05h-12c-.64,0-.64,0-.64-.64v-6c0-.58,0-.59.6-.59,1.53,0,3.05,0,4.57,0,.45,0,.6.12.6.58,0,1.54,0,3.08,0,4.62,0,.43.14.56.57.55.93,0,.84.07.84-.85V12.05c0-.64,0-.64.66-.64,1.5,0,3,0,4.52,0,.45,0,.6.13.59.58q0,4.43,0,8.83c0,.2-.12.52.16.59a1.85,1.85,0,0,0,1.14,0c.16-.06.1-.3.1-.45V7.75c0-.64,0-.64.66-.64h4.47c.63,0,.63,0,.63.62q0,6.5,0,13c0,.23-.12.56.12.66a2,2,0,0,0,1.14,0c.16,0,.13-.22.13-.35,0-.46,0-.93,0-1.39V3.58c0-.77,0-.77.79-.77,1.48,0,3,0,4.43,0,.41,0,.54.14.54.55q0,9.51,0,19c0,.42-.16.53-.55.53h-7.8c-.38,0-.52,0-.39.49a2.61,2.61,0,0,1-.68,2.76Q34.09,29.24,31,32.3a7.63,7.63,0,0,1-8.2,1.49l-.29-.13c-.24-.1-.33,0-.33.23s0,.75,0,1.12c0,1.65,0,3.29,0,4.93a1.46,1.46,0,0,1-1.61,1.6c-1.25,0-1.25,0-1.25,1.24s0,2.66,0,4c0,.4-.14.51-.52.51H6.9c-.4,0-.51-.14-.51-.52,0-2.63,0-5.26,0-7.89a.73.73,0,0,0-.48-.78,6.31,6.31,0,0,1-3.82-6c0-1.07,0-2.15,0-3.22A5.67,5.67,0,0,1,6,23.51a14.35,14.35,0,0,1,1.43-.38.44.44,0,0,0,.39-.5c0-.86,0-1.73,0-2.59a.67.67,0,0,0-.32-.6C6.89,19,6.25,18.54,5.67,18A10.38,10.38,0,0,1,2.1,10.11,3.76,3.76,0,0,1,4,6.79a1.22,1.22,0,0,0,.51-.59,5.15,5.15,0,0,1,5-3.39H15.7A3.57,3.57,0,0,1,18.23,9a1.1,1.1,0,0,0-.35.82,4.39,4.39,0,0,0,1.39,3.42c.31.28.33.51,0,.74a3.2,3.2,0,0,0-1.38,3.36,4.59,4.59,0,0,1,0,1.43,3.33,3.33,0,0,1-3.79,2.71c-.41-.05-.49.08-.47.44,0,1.22-.22,1,1,1.18a13.18,13.18,0,0,1,4.61,1.18,18,18,0,0,1,3.22,2.47c.47.4.92.82,1.39,1.21a2.83,2.83,0,0,0,3.77-.07c1.62-1.56,3.19-3.18,4.79-4.78C32.43,23.05,32.43,23,32.46,23ZM3.56,30.43c0,.66,0,1.18,0,1.7A5,5,0,0,0,7,36.94a10.69,10.69,0,0,0,3.38.26c.25,0,.27-.18.27-.37,0-.69,0-1.37,0-2.06,0-.29-.11-.4-.4-.4-.63,0-1.25,0-1.88,0a2.14,2.14,0,0,1-2-2c0-.44,0-.87,0-1.3,0-1.11-.19-1,1-1,.31,0,.43.13.42.43,0,.52,0,1,0,1.57a.77.77,0,0,0,.86.86c1,0,2,0,3,0,.31,0,.42-.12.41-.42,0-.81,0-1.62,0-2.42a1.42,1.42,0,0,1,1.44-1.46h7.17a1.43,1.43,0,0,1,1.45,1.45c0,.44,0,.89,0,1.34a.6.6,0,0,0,.3.55,6.12,6.12,0,0,0,7.08-.39c1.51-1.27,2.81-2.76,4.23-4.13.18-.17.17-.31,0-.48-.43-.42-.86-.83-1.26-1.27-.25-.27-.41-.23-.65,0-1,1-2.06,2.08-3.1,3.11a4.3,4.3,0,0,1-5.79.33c-.91-.72-1.77-1.51-2.64-2.28A8,8,0,0,0,16,24.75c-.34,0-.45.06-.51.37-.17.91-.37,1.81-.54,2.72-.06.36-.2.41-.51.24-.82-.42-1.66-.82-2.47-1.25a.48.48,0,0,0-.67.11c-.57.6-1.18,1.18-1.76,1.78-.22.23-.36.22-.57,0-.88-1.08-1.8-2.15-2.68-3.24-.21-.26-.38-.32-.66-.13a4.29,4.29,0,0,0-2,2.92A15.21,15.21,0,0,0,3.56,30.43ZM9.29,19.31V22.8a.62.62,0,0,0,.19.57L11,24.5c.18.14.31.11.44-.08a2.6,2.6,0,0,0,.72-2,2.12,2.12,0,0,1,0-.71c.07-.48-.15-.65-.6-.73-1.12-.21-1,0-.79-1.23.06-.33.2-.41.53-.34,1,.21,2,.4,3,.59a1.84,1.84,0,0,0,1.94-1c.12-.26.1-.4-.23-.39H15a2.85,2.85,0,0,1-2.81-2.19c-.17-.61-.1-.7.55-.7h.49c.21,0,.31.1.39.29a1.48,1.48,0,0,0,1.65,1.14c1.14,0,1.19,0,1.12-1.12a2.24,2.24,0,0,1,.91-2.22c.23-.15.22-.33.06-.56a5.11,5.11,0,0,1-.94-2.85c0-.28-.12-.4-.41-.39-.49,0-1,0-1.48,0a2.21,2.21,0,0,1-2.18-1.19.44.44,0,0,0-.48-.23,2.89,2.89,0,0,0-2.52,2.27,5.27,5.27,0,0,0-.07,1.43c0,.44-.12.63-.58.59a.72.72,0,0,0-.79.47.77.77,0,0,0,.21.9c.24.26.49.52.76.76a1.1,1.1,0,0,1,.4.94C9.28,17.07,9.29,18.19,9.29,19.31Zm3.22-15H9.42A3.72,3.72,0,0,0,5.74,7.16a.83.83,0,0,1-.61.72A2.23,2.23,0,0,0,3.62,9.67a5.2,5.2,0,0,0,.12,2.08,9,9,0,0,0,3.72,5.8c.09.06.16.17.27.14s.09-.17.1-.27c.06-.82.06-1.62-.75-2.13L7,15.22a2.25,2.25,0,0,1,.45-3.51.71.71,0,0,0,.37-.64,4.31,4.31,0,0,1,3.95-3.95.7.7,0,0,0,.65-.37,2.17,2.17,0,0,1,2.24-1.07c.11,0,.25,0,.28.11a2.25,2.25,0,0,1,0,1.15c-.07.32-.4.17-.62.2a.77.77,0,0,0-.76.72.76.76,0,0,0,.76.68c.48,0,1,0,1.43,0a2,2,0,0,0,1.76-1.07,2.12,2.12,0,0,0-1.91-3.18C14.6,4.25,13.56,4.27,12.51,4.27Zm32.59,8.6h0c0-2.69,0-5.38,0-8.06,0-.4-.11-.57-.54-.55a17.81,17.81,0,0,1-1.79,0c-.42,0-.53.14-.53.54,0,2,0,4,0,6q0,5.09,0,10.17c0,.38.11.54.51.52.58,0,1.16,0,1.75,0s.59,0,.59-.6ZM20.73,35.09c0-1.52,0-3.05,0-4.57,0-.28-.05-.45-.39-.45H14c-.29,0-.39.12-.39.4,0,.6,0,1.2,0,1.79,0,.42,0,.7.54.7a1,1,0,0,1,.59.19,1.15,1.15,0,0,0,1.53,0,2,2,0,0,1,2.49.44,2.16,2.16,0,0,1,.3,2.57,2.11,2.11,0,0,1-2.37,1c-.34-.09-.53-.07-.73.25a2.38,2.38,0,0,1-1.74,1.16c-.58.08-.67.36-.61.83a.54.54,0,0,1,0,.18c-.05.38.14.48.5.48h6.13c.4,0,.52-.12.51-.51C20.72,38.07,20.73,36.58,20.73,35.09Zm-7.84,6.45H8.32c-.31,0-.47.07-.46.42q0,1.73,0,3.45c0,.28.09.4.39.4,1.16,0,2.33,0,3.49,0,.29,0,.4-.12.39-.4,0-.5,0-1,0-1.48,0-1.09-.17-1,1-1,.32,0,.45.11.45.44,0,.66,0,1.32,0,2,0,.36.13.47.47.46,1.11,0,2.21,0,3.31,0,.37,0,.5-.11.5-.48,0-1.09,0-2.18,0-3.27,0-.43-.16-.53-.55-.53C15.84,41.55,14.36,41.54,12.89,41.54ZM35.09,15c0,2,0,3.94,0,5.91,0,.44.14.58.57.56a16.83,16.83,0,0,1,1.74,0c.41,0,.55-.11.55-.53,0-2,0-4,0-6s0-3.91,0-5.86c0-.42-.14-.56-.54-.54a17,17,0,0,1-1.75,0c-.42,0-.57.12-.57.56C35.1,11.07,35.09,13,35.09,15Zm-7.16,2.15c0,1.28,0,2.56,0,3.85,0,.26,0,.47.38.46.7,0,1.4,0,2.1,0,.27,0,.36-.12.36-.38q0-3.9,0-7.79c0-.29-.11-.41-.4-.4-.64,0-1.28,0-1.93,0-.42,0-.53.15-.52.55C27.94,14.65,27.92,15.89,27.93,17.13Zm-7.17,2.14v1.79c0,.26.09.39.36.38h2.11c.27,0,.37-.11.37-.37,0-1.17,0-2.33,0-3.5,0-.28-.1-.41-.39-.4H21.15c-.29,0-.4.12-.39.4C20.77,18.14,20.76,18.7,20.76,19.27Zm-8.6,16.49h0v1.11c0,.19.06.33.27.33a5.85,5.85,0,0,0,1.51-.07,1.43,1.43,0,0,0,1-1.35,1.44,1.44,0,0,0-1-1.33,3.23,3.23,0,0,0-.93-.08c-1,0-.86-.09-.87.85Zm24.33-11.6a1.32,1.32,0,0,0-.69-1.09,1.25,1.25,0,0,0-1.45.19c-.29.23-.53.52-.8.77s-.26.37,0,.58.47.46.7.69c.86.85.85.85,1.71,0A1.74,1.74,0,0,0,36.49,24.16ZM10,38.67H8.78c-1,0-.91-.17-.93.95,0,.35.13.47.47.46,1,0,1.91,0,2.87,0s.93.19.94-1c0-.29-.12-.39-.4-.39ZM8.26,24.45c-.18.06-.47,0-.58.22s.15.33.26.47c.24.32.52.61.77.93.64.79.63.78,1.33,0,.18-.2.21-.32,0-.49-.46-.33-.91-.68-1.36-1A.6.6,0,0,0,8.26,24.45Zm5.21,0c-.22,0-.28,0-.43.26-.64,1-.62.7.27,1.2.37.2.5.09.54-.29A5.72,5.72,0,0,1,14,25C14.05,24.58,13.92,24.43,13.47,24.43Zm3.67,11.33a.69.69,0,0,0,.06-1.37.69.69,0,1,0-.06,1.37Zm6.45,5.74a5.75,5.75,0,1,1,5.72,5.77A5.72,5.72,0,0,1,23.59,41.5Zm5-2.24c0-.49,0-1,0-1.47s-.13-.45-.48-.36a4.28,4.28,0,0,0-2.93,5.13c.09.31.19.39.49.21.86-.51,1.72-1,2.59-1.49a.58.58,0,0,0,.32-.58C28.6,40.22,28.61,39.74,28.61,39.26Zm5,2.32c0-.3-.07-.55-.12-.8a4.16,4.16,0,0,0-3-3.34c-.3-.1-.48-.08-.47.31,0,1,0,2,0,3a.53.53,0,0,0,.24.53l2.75,1.58c.23.14.34,0,.38-.17Zm-4.3,4.22a4.46,4.46,0,0,0,2.94-1.19c.23-.21.31-.36,0-.56-.86-.47-1.71-1-2.56-1.47a.6.6,0,0,0-.7,0c-.84.5-1.7,1-2.56,1.47-.3.17-.29.31-.06.53A4.5,4.5,0,0,0,29.35,45.8Zm14.9-10c1,0,.87.08.88-.87,0-.59,0-.6-.6-.6H35.94c-1,0-.86-.09-.89.91,0,.43.13.57.57.56,1.49,0,3,0,4.47,0ZM44.57,33c.43,0,.61-.14.56-.57a2.43,2.43,0,0,1,0-.27c0-.63,0-.63-.65-.63q-4.23,0-8.46,0c-1.05,0-.94-.14-1,.95,0,.4.14.52.52.52,1.5,0,3,0,4.52,0S43.08,32.93,44.57,33Zm1.07,5.72c1,0,.9.11.93-.91,0-.43-.14-.56-.57-.56-1.89,0-3.78,0-5.68,0-1,0-.94-.15-1,1,0,.35.12.47.47.47,1,0,2.06,0,3.08,0Zm0,2.87c1,0,.89.11.92-.91,0-.44-.14-.57-.57-.56-1.89,0-3.79,0-5.68,0-1,0-.94-.16-1,1,0,.35.13.47.47.46h5.82Zm.05,5.73c.93,0,.86.09.86-.87,0-.58,0-.59-.61-.59-1.88,0-3.76,0-5.64,0-1,0-.93-.14-1,1,0,.4.16.51.53.5,1,0,2.06,0,3.09,0Zm0-2.86c1,0,.87.09.9-.89,0-.46-.14-.59-.59-.59-1.89,0-3.79,0-5.68,0-1,0-.92-.13-.94,1,0,.37.13.5.49.49h5.82Zm-1.5-14.34c1,0,.94.15,1-1,0-.35-.13-.47-.47-.47-.95,0-1.91,0-2.86,0s-1-.19-1,1c0,.31.12.43.43.42.56,0,1.13,0,1.7,0Zm-5.74,0c1.06,0,1,.15,1-1,0-.38-.16-.49-.51-.48s-1,0-1.43,0c-1.06,0-1-.15-1,1,0,.34.11.5.46.48s.66,0,1,0ZM38,40.82c0-.74,0-.74-.72-.75s-.75,0-.75.77,0,.7.77.7S38,41.54,38,40.82Zm-1.47,2.85c0,.74,0,.74.73.74s.74,0,.74-.73,0-.74-.73-.74S36.49,42.94,36.49,43.67Zm0-5.74c0,.74,0,.74.72.74s.74,0,.74-.72,0-.74-.72-.74S36.5,37.21,36.5,37.93Zm.74,7.88c-.75,0-.75,0-.75.71s0,.75.72.75.75,0,.75-.71S38,45.81,37.24,45.81ZM14.32,11.42a.72.72,0,1,0,.7.72A.72.72,0,0,0,14.32,11.42Z"/>
</svg>
