<svg id="Layer_1" data-name="Layer 1" xmlns="http://www.w3.org/2000/svg" xmlns:xlink="http://www.w3.org/1999/xlink" viewBox="0 0 50 50">
  <defs>
    <style>
      .cls-1 {
        fill: url(#linear-gradient);
      }
    </style>
    <linearGradient id="linear-gradient" x1="3.53" y1="5.7" x2="40.65" y2="42.82" gradientUnits="userSpaceOnUse">
      <stop offset="0" stop-color="#21c3f1"/>
      <stop offset="0.6" stop-color="#a685d2"/>
      <stop offset="1" stop-color="#7f40e5"/>
    </linearGradient>
  </defs>
  <path class="cls-1" d="M17,47.47H7.79a2.18,2.18,0,0,1-2.37-2.36V36.74A2.17,2.17,0,0,1,7.77,34.4c2.53,0,5.06,0,7.6,0a.85.85,0,0,0,.81-.44c.66-1,1.34-2,2-3a1.74,1.74,0,0,1,1.95-.81,1.7,1.7,0,0,1,1.23,1.79c0,.69,0,1.39,0,2.08,0,.31.11.43.42.43,1,0,2.08,0,3.12,0,.3,0,.38-.07.27-.37a36.14,36.14,0,0,0-2.57-5.13.58.58,0,0,0-.58-.26H7.15c-1.19,0-1.73-.54-1.73-1.74V26a1.49,1.49,0,0,1,1.7-1.68H19.57c.34,0,.42-.09.27-.42A15.67,15.67,0,0,1,18.69,20c-.06-.37-.11-.74-.14-1.12s-.13-.38-.4-.38c-1.46,0-2.92,0-4.39,0-.29,0-.35.16-.35.41,0,.72,0,1.45,0,2.17a1.67,1.67,0,0,1-1.21,1.71A1.71,1.71,0,0,1,10.28,22C9.57,21,8.86,19.93,8.17,18.87a.73.73,0,0,0-.7-.37c-.91,0-1.81,0-2.72,0a2.14,2.14,0,0,1-2.22-2.23q0-4.29,0-8.6A2.15,2.15,0,0,1,4.75,5.44H20.59a2.11,2.11,0,0,1,1.87,1c.2.31.3.29.55.06a14.13,14.13,0,0,1,11.15-3.9,14.4,14.4,0,0,1,13.1,12.12A15.92,15.92,0,0,1,46,24c-.92,2-2.14,3.88-3.24,5.8a29,29,0,0,0-3,7.3.71.71,0,0,0,.15.75,1.19,1.19,0,0,1,.32.87c0,1,0,1.93,0,2.9a1.42,1.42,0,0,1-1.27,1.46.52.52,0,0,0-.5.42c-.17.53-.34,1.07-.54,1.59a3.58,3.58,0,0,1-3.43,2.35h-3a3.4,3.4,0,0,1-2.64-1.09c-.24-.25-.36-.27-.56,0a2.14,2.14,0,0,1-1.94,1ZM38.76,34.85h.06c.09-.24.18-.47.26-.71a30.58,30.58,0,0,1,1.53-3.53c.9-1.77,2-3.46,3-5.18a15.8,15.8,0,0,0,2.32-9.5,12.44,12.44,0,0,0-3.68-8A12.55,12.55,0,0,0,31.92,4.1a12.56,12.56,0,0,0-9.71,5.64A12.73,12.73,0,0,0,20,18.14a15.48,15.48,0,0,0,1.52,5.73.59.59,0,0,0,.62.4c1,0,2.05,0,3.07,0,.3,0,.46-.06.55-.38a1.44,1.44,0,0,1,1.5-1.07c.31,0,.63,0,.95,0s.4-.12.39-.41c0-.68,0-1.36,0-2a.42.42,0,0,0-.35-.48,1.44,1.44,0,0,1-1.1-1.48c0-.92,0-1.84,0-2.76a1.44,1.44,0,0,1,1.53-1.53h8.55a1.44,1.44,0,0,1,1.52,1.54c0,.88,0,1.75,0,2.63a1.48,1.48,0,0,1-1.15,1.62.37.37,0,0,0-.3.42c0,.7,0,1.39,0,2.08,0,.3.12.41.41.4s.69,0,1,0a1.43,1.43,0,0,1,1.44,1.44c0,1.46,0,2.92,0,4.39a1.44,1.44,0,0,1-1.44,1.44c-.32,0-.64,0-.95,0s-.52.1-.51.49c0,.63,0,1.27,0,1.9a.45.45,0,0,0,.38.54,1.46,1.46,0,0,1,1.07,1.46ZM12.67,6.92H5c-.69,0-1,.27-1,1v8.19c0,.68.28,1,1,1,1.08,0,2.17,0,3.25,0a.84.84,0,0,1,.82.43c.77,1.19,1.56,2.36,2.35,3.54.09.13.16.34.36.29s.18-.29.18-.46c0-1.07,0-2.14,0-3.21,0-.46.14-.6.59-.59,1.81,0,3.62,0,5.43,0,.32,0,.5-.05.51-.44a14.07,14.07,0,0,1,2.68-7.93,1.3,1.3,0,0,0,.1-1.33c-.18-.41-.58-.42-1-.42ZM17,46h9.09c.75,0,1-.26,1-1v-8c0-.78-.25-1-1-1-1.9,0-3.81,0-5.71,0-.39,0-.52-.14-.52-.53,0-1.08,0-2.17,0-3.25,0-.18.05-.41-.16-.48s-.3.17-.39.31c-.79,1.16-1.57,2.32-2.33,3.5a.9.9,0,0,1-.85.45c-2.73,0-5.46,0-8.19,0-.84,0-1.08.24-1.08,1.08v7.87C6.9,45.77,7.11,46,8,46ZM33,24.3H27.72c-.4,0-.57.1-.56.53,0,1.09,0,2.17,0,3.26,0,.42.14.54.55.54q5.25,0,10.5,0c.43,0,.53-.16.52-.56,0-1.07,0-2.14,0-3.21,0-.44-.14-.57-.57-.56C36.43,24.31,34.7,24.3,33,24.3Zm.69,17.34c1.52,0,3.05,0,4.57,0,.35,0,.53-.08.51-.48,0-.66,0-1.33,0-2,0-.28-.1-.4-.4-.4H29c-.3,0-.41.11-.4.4,0,.65,0,1.3,0,1.94,0,.4.11.53.51.53C30.64,41.63,32.14,41.64,33.65,41.64ZM16.27,27.16h8.87c.17,0,.43.08.49-.12a1.81,1.81,0,0,0,0-1.15c-.1-.27-.43-.14-.66-.14H8.61c-.44,0-.88,0-1.31,0s-.42.12-.4.41c0,.13,0,.27,0,.4,0,.61,0,.61.59.61Zm16.66-8.69h3.89c.32,0,.47-.09.46-.44,0-.66,0-1.33,0-2,0-.33-.11-.45-.44-.45H29.05c-.34,0-.44.14-.43.46,0,.63,0,1.27,0,1.9,0,.4.13.53.52.52C30.4,18.46,31.67,18.47,32.93,18.47Zm0,16H29.07c-.33,0-.46.11-.45.44,0,.67,0,1.33,0,2,0,.3.09.44.41.44h7.82c.31,0,.44-.1.43-.42,0-.65,0-1.3,0-1.94,0-.41-.15-.52-.53-.51Zm0,8.69H29.47c-.51,0-.53,0-.37.53.08.23.16.45.23.68A2.21,2.21,0,0,0,31.6,46c.9,0,1.8,0,2.71,0a2.2,2.2,0,0,0,2.26-1.65c.08-.24.15-.49.25-.73s0-.49-.35-.48C35.3,43.13,34.12,43.12,33,43.12Zm-.05-20.3c.82,0,1.63,0,2.45,0,.38,0,.5-.13.49-.5,0-.64,0-1.29,0-1.94,0-.31-.1-.43-.41-.43-1.65,0-3.29,0-4.93,0-.32,0-.43.12-.43.43,0,.65,0,1.29,0,1.94,0,.37.11.51.49.5C31.34,22.8,32.12,22.82,32.9,22.82Zm0,10.13c.81,0,1.63,0,2.44,0,.31,0,.47-.08.46-.43q0-1,0-2c0-.28-.1-.41-.39-.4h-5c-.29,0-.4.12-.39.4,0,.67,0,1.33,0,2,0,.35.11.49.47.48C31.33,32.94,32.13,33,32.93,33ZM27.1,34.44c.07-.58.29-1.13.82-1.28.7-.2.71-.64.67-1.19,0-.18,0-.36,0-.54,0-1.33,0-1.33-1.31-1.34A1.46,1.46,0,0,1,25.73,29c-.08-.26-.2-.35-.44-.33h-.5c-.54,0-.57.05-.29.53a28.85,28.85,0,0,1,2.31,4.94C26.86,34.23,26.88,34.38,27.1,34.44ZM33.69,7.81c0-1,.11-.9-.93-.93-.41,0-.56.13-.55.55,0,1.43,0,2.86,0,4.29,0,1.08-.15,1,1,1,.35,0,.49-.11.48-.47,0-.81,0-1.63,0-2.44ZM27.45,9.46A3.73,3.73,0,0,1,27,9.9c-.39.29-.32.52,0,.82.62.57,1.2,1.18,1.79,1.78.78.78.78.77,1.54,0,.18-.19.23-.32,0-.52-.83-.81-1.64-1.63-2.46-2.45l-.19-.15A.3.3,0,0,0,27.45,9.46Zm11.07.06c-.21-.21-.35-.22-.56,0-.62.65-1.27,1.28-1.91,1.92-.8.8-.8.79.05,1.57.19.16.31.18.49,0,.82-.83,1.64-1.64,2.46-2.46a1.06,1.06,0,0,0,.26-.37A10.22,10.22,0,0,1,38.52,9.52ZM16.15,8.87c-.27-.31-.45-.27-.72,0-1.52,1.54-3.07,3.07-4.59,4.61-.21.21-.36.31-.63,0-.66-.65-.67-.64-1.34,0l-.13.12c-.19.17-.18.31,0,.49l1.5,1.5c.19.2.34.17.52,0l5.82-5.82a1.35,1.35,0,0,0,.29-.37A4.71,4.71,0,0,1,16.15,8.87ZM19.9,40.93c0-1,0-2,0-3.08,0-.4.1-.58.54-.56.61,0,1.23,0,1.85,0a3.64,3.64,0,0,1,0,7.26c-.65,0-1.3,0-1.94,0-.36,0-.48-.14-.47-.49C19.91,43,19.9,42,19.9,40.93Zm1.48,0v1c0,1.17.19,1.31,1.34,1a2.57,2.57,0,0,0,.45-.2,2.12,2.12,0,0,0,.9-2.62,2.27,2.27,0,0,0-2.42-1.37c-.25,0-.27.2-.27.39Zm-13.06,0c0-1,0-2,0-3,0-.58,0-.59.61-.59h1.58a2.17,2.17,0,0,1,1.92,3.22.74.74,0,0,0,0,.82,2.17,2.17,0,0,1-1.89,3.23c-.56,0-1.11,0-1.67,0-.41,0-.56-.12-.55-.54C8.33,43,8.32,42,8.32,40.92ZM9.8,39.46c0,.72,0,.73.46.73s.93-.29.94-.7-.39-.68-.93-.72S9.81,39.13,9.8,39.46Zm0,2.91c.05.31-.16.76.48.73s.93-.3.93-.72-.4-.68-.93-.71S9.81,42,9.79,42.37ZM17,39.31v-.05c-.05-.38.13-.49.49-.49,1,0,.95.17.95-1V37.7c0-.28-.11-.4-.4-.4H14.51c-.29,0-.39.12-.41.4,0,1-.06,1.06,1,1.07.32,0,.45.11.45.45,0,1.14,0,2.29,0,3.44,0,.34-.14.43-.46.44-1.08,0-1.09,0-1,1.11,0,.25.11.36.36.36h3.66c.18,0,.31,0,.35-.27.19-1,0-1.21-.95-1.2-.36,0-.52-.11-.5-.49,0-.54,0-1.09,0-1.63Z"/>
</svg>
