<svg id="Layer_1" data-name="Layer 1" xmlns="http://www.w3.org/2000/svg" xmlns:xlink="http://www.w3.org/1999/xlink" viewBox="0 0 50 50">
  <defs>
    <style>
      .cls-1 {
        fill: url(#linear-gradient);
      }
    </style>
    <linearGradient id="linear-gradient" x1="8.71" y1="9.23" x2="45.33" y2="45.85" gradientUnits="userSpaceOnUse">
      <stop offset="0" stop-color="#21c3f1"/>
      <stop offset="0.6" stop-color="#a685d2"/>
      <stop offset="1" stop-color="#7f40e5"/>
    </linearGradient>
  </defs>
  <path class="cls-1" d="M2.13,39.86v-6.3c0-.73.22-1,.94-1H6.79c.67,0,.9.21.9.89,0,.35.11.5.47.47s.52,0,.77,0c.54,0,.76-.22.81-.77a2.75,2.75,0,0,1,2.36-2.65c.28-.06.38-.17.38-.45q0-1.61,0-3.21c0-.31-.12-.44-.43-.44-.87,0-1.75,0-2.63,0a.5.5,0,0,0-.47.28.79.79,0,0,1-.73.38c-.68,0-1.36,0-2,0a2,2,0,0,1-2-2q0-5.28,0-10.56a2,2,0,0,1,2-2c.65,0,1.3,0,1.95,0a.82.82,0,0,1,.76.42.59.59,0,0,0,.6.29H21.05c.25,0,.47,0,.6-.29a.81.81,0,0,1,.76-.41c.67,0,1.33,0,2,0a2.18,2.18,0,0,1,2,2.39c0,1.5,0,3,0,4.49,0,1.78,0,3.56,0,5.34A2.19,2.19,0,0,1,24.87,27a3.68,3.68,0,0,1-1,.08H22.66a1.06,1.06,0,0,1-1.09-.49c-.1-.17-.27-.16-.44-.16H18.55c-.31,0-.44.11-.44.43q0,1.61,0,3.21c0,.35.15.44.46.44.9,0,1.79,0,2.68,0a2.2,2.2,0,0,1,2.24,3.08,3,3,0,0,1-.57,1.12c-.16.2-.14.31,0,.49a2.1,2.1,0,0,1,.4,2.61.62.62,0,0,0,0,.67,2.05,2.05,0,0,1,0,2.16.48.48,0,0,0,0,.54,2.13,2.13,0,0,1,0,2.24.5.5,0,0,0,0,.55,2.12,2.12,0,0,1-2,3.24H12.22A2.36,2.36,0,0,1,10,46.15a.75.75,0,0,0-.66-.34c-.43,0-.87,0-1.31,0-.26,0-.33.13-.34.37-.06.91-.23,1.06-1.13,1.06H3.17c-.82,0-1-.24-1-1.06ZM15.38,14.68H9.63c-.36,0-.51.12-.51.5q0,4.67,0,9.33c0,.37.13.5.5.5,3.78,0,7.55,0,11.33,0,.4,0,.52-.14.52-.53,0-3.08-.06-6.16.06-9.24,0-.44-.14-.57-.57-.56C19.1,14.69,17.24,14.68,15.38,14.68Zm-2.9,25.77V35.83c0-.95.2-1.14,1.14-1.14H20a2.06,2.06,0,0,0,2.21-1.88c0-.55-.18-.8-.73-.81h-9a1.24,1.24,0,0,0-1.26,1.13c0,.13,0,.27-.07.4A2.13,2.13,0,0,1,9,35.44q-.45,0-.9,0c-.27,0-.4.11-.38.38v7.92c0,.64,0,.64.66.64.25,0,.51,0,.77,0a2.14,2.14,0,0,1,2.13,1,1,1,0,0,0,.22.23.89.89,0,0,0,.83.1c.28-.09.16-.39.16-.6C12.48,43.56,12.48,42,12.48,40.45ZM6.23,40c0-1.8,0-3.59,0-5.39,0-.36-.12-.52-.5-.51-.56,0-1.12,0-1.67,0-.32,0-.48.09-.48.43q0,5.41,0,10.82c0,.31.12.44.43.43.56,0,1.12,0,1.67,0s.55-.14.55-.55C6.22,43.46,6.23,41.71,6.23,40ZM22.93,19.8c0,1.57,0,3.14,0,4.71,0,1.3-.21,1.12,1.16,1.13.66,0,.88-.22.88-.87q0-4.93,0-9.87c0-.71-.23-.93-.91-.94a5.8,5.8,0,0,1-.59,0c-.42-.05-.56.12-.55.54C22.94,16.26,22.93,18,22.93,19.8Zm-15.27,0c0-1.65,0-3.29,0-4.94,0-1.05.12-.93-1-.94-.9,0-1.09.19-1.09,1.09,0,1.75,0,3.5,0,5.25,0,1.45,0,2.9,0,4.34,0,.81.19,1,1,1a4.17,4.17,0,0,1,.5,0c.42.05.57-.12.57-.56C7.65,23.34,7.66,21.59,7.66,19.84ZM14,41c0,1.45,0,2.9,0,4.35,0,.32.1.47.44.45h1.27c.25,0,.38-.09.34-.35a2.11,2.11,0,0,1,.31-1.47.39.39,0,0,0,0-.46,2.2,2.2,0,0,1,0-2.28.46.46,0,0,0,0-.5,2.15,2.15,0,0,1,0-2.28.39.39,0,0,0,0-.46A2.11,2.11,0,0,1,16,36.52c0-.25-.07-.37-.32-.37s-.79,0-1.18,0-.55.14-.54.56C14,38.11,14,39.53,14,41Zm2.69-12.42c0-.54,0-1.09,0-1.63,0-.29-.09-.45-.41-.45-.64,0-1.27,0-1.9,0-.3,0-.4.14-.4.42,0,1.09,0,2.17,0,3.26,0,.29.13.4.41.4q.93,0,1.86,0c.34,0,.45-.14.44-.46C16.63,29.56,16.64,29,16.64,28.53Zm3.17,15.89H18.14a.67.67,0,1,0,0,1.33h3.35a.6.6,0,0,0,.68-.67c0-.42-.22-.64-.68-.65Zm0-5.53H18.13a.65.65,0,0,0-.72.64.66.66,0,0,0,.73.69h3.35a.63.63,0,0,0,.68-.68c0-.42-.22-.64-.69-.65Zm0-2.74H18.15c-.51,0-.75.23-.74.65s.26.62.73.62h3.35c.46,0,.69-.23.68-.65s-.23-.61-.67-.62Zm0,6.8H21.5c.45,0,.66-.21.67-.61s-.22-.65-.68-.65h-3.4a.6.6,0,0,0-.68.61c0,.39.25.64.7.65ZM34.71,2.15c3.17,0,6.34.05,9.51,0a3.63,3.63,0,0,1,3.65,3.66q-.07,8.84,0,17.67a3.61,3.61,0,0,1-3.66,3.66c-2.05-.06-4.1,0-6.16,0-.4,0-.56.11-.55.54q0,4.31,0,8.61c0,.39.11.54.51.53.74,0,1.48,0,2.22,0,1,0,1.42.42,1.43,1.4s0,1.87,0,2.81c0,.6,0,.6.61.61,1,0,1.44.44,1.46,1.4,0,1.31,0,2.62,0,3.94,0,.71-.28.94-1,.94H26.63c-.73,0-1-.25-1-1q0-1.95,0-3.9a1.27,1.27,0,0,1,1.44-1.41c.64,0,.64,0,.64-.63,0-.92,0-1.84,0-2.76s.43-1.43,1.44-1.43c.74,0,1.48,0,2.22,0,.36,0,.51-.11.51-.49q0-4.35,0-8.7c0-.39-.15-.49-.51-.49-.91,0-1.82,0-2.72,0-.59,0-.91-.26-.92-.71s.35-.74.91-.75H44.22A2.12,2.12,0,0,0,46,24.92a1.84,1.84,0,0,0,.44-1.25V5.59a1.91,1.91,0,0,0-1.75-2,5.54,5.54,0,0,0-.81-.07c-3.16,0-6.32,0-9.47,0s-6.16,0-9.24,0a2.13,2.13,0,0,0-2.19,2.2v4.53c0,.38-.09.7-.5.81a.66.66,0,0,1-.89-.63c0-1.8-.07-3.6,0-5.39a3.3,3.3,0,0,1,3.26-2.95c3.29,0,6.58,0,9.88,0Zm0,44.26h7.07c.37,0,.55-.09.53-.51,0-.8,0-1.6,0-2.4,0-.33-.11-.45-.45-.45q-7.16,0-14.31,0c-.33,0-.45.13-.44.46,0,.75,0,1.51,0,2.26s0,.64.63.64Zm0-4.82c1.68,0,3.35,0,5,0,.35,0,.52-.08.51-.48q0-1.24,0-2.49c0-.33-.12-.45-.45-.45H29.62c-.34,0-.46.13-.45.46,0,.8,0,1.6,0,2.4,0,.43.13.57.56.57C31.38,41.57,33,41.59,34.67,41.59Zm-1.33-9.68c0,1.47,0,2.93,0,4.39,0,.32.07.48.43.47.63,0,1.26,0,1.9,0,.27,0,.37-.12.37-.39,0-3,0-5.91,0-8.87,0-.29-.12-.41-.4-.4-.59,0-1.18,0-1.77,0-.43,0-.54.15-.54.55C33.35,29.07,33.34,30.49,33.34,31.91Zm1.19-16.58c.42,0,.84,0,1.26,0a1.55,1.55,0,0,1,1.57,1.36,5,5,0,0,1,0,1.54,1.49,1.49,0,0,1-1.58,1.32h-2A1.55,1.55,0,0,1,32,18.06c-.08-.5-.39-.78-.8-.73a.79.79,0,0,0-.64.9A3,3,0,0,0,33.48,21c.38,0,.5.16.48.52s0,.6,0,.9c0,.54.3.86.74.85s.7-.32.72-.86a7.48,7.48,0,0,0,0-.82c0-.42.09-.58.55-.59a3,3,0,0,0,2.82-2.64,8.18,8.18,0,0,0,0-1.85,3,3,0,0,0-2.62-2.6c-.88-.1-1.75,0-2.63-.06A1.45,1.45,0,0,1,32,12.59,5,5,0,0,1,32,11a1.44,1.44,0,0,1,1.52-1.27h2.31A1.46,1.46,0,0,1,37,10.2a2.06,2.06,0,0,1,.43,1.12.69.69,0,0,0,1.38-.1,2.8,2.8,0,0,0-.07-.76,2.93,2.93,0,0,0-2.81-2.23c-.37,0-.52-.12-.49-.5s0-.6,0-.9c0-.55-.28-.85-.73-.87s-.71.3-.73.85c0,.31,0,.63,0,1s-.12.46-.47.47a3,3,0,0,0-2.91,2.6,7,7,0,0,0,0,1.58,3,3,0,0,0,3.22,2.92c.25,0,.51,0,.77,0ZM15.62,21.92c-.23,0-.46,0-.68,0a.55.55,0,0,1-.64-.49.69.69,0,0,0-.87-.59.74.74,0,0,0-.53.91,1.8,1.8,0,0,0,1.26,1.51.49.49,0,0,1,.41.46c.06.51.32.75.73.76s.65-.24.72-.77c0-.2.08-.35.29-.4a2.13,2.13,0,0,0,1.37-2.69,1.85,1.85,0,0,0-1.82-1.52H15c-.47,0-.62-.16-.64-.62,0-.62.15-.78.77-.79h.54a.59.59,0,0,1,.67.52.69.69,0,0,0,.85.6.78.78,0,0,0,.56-.95,1.81,1.81,0,0,0-1.28-1.5c-.21-.06-.38-.12-.4-.4,0-.56-.31-.83-.71-.83s-.66.28-.74.82a.41.41,0,0,1-.26.37A2.07,2.07,0,0,0,12.9,18.9a1.84,1.84,0,0,0,1.64,1.63,7.75,7.75,0,0,0,1.08,0c.56,0,.66.12.66.67S16.15,21.9,15.62,21.92Z"/>
</svg>
