<svg id="Layer_1" data-name="Layer 1" xmlns="http://www.w3.org/2000/svg" xmlns:xlink="http://www.w3.org/1999/xlink" viewBox="0 0 50 50">
  <defs>
    <style>
      .cls-1 {
        fill: url(#linear-gradient);
      }
    </style>
    <linearGradient id="linear-gradient" x1="4.45" y1="7.1" x2="37.04" y2="39.69" gradientUnits="userSpaceOnUse">
      <stop offset="0" stop-color="#21c3f1"/>
      <stop offset="0.6" stop-color="#a685d2"/>
      <stop offset="1" stop-color="#7f40e5"/>
    </linearGradient>
  </defs>
  <path class="cls-1" d="M21.58,2.61H32.51a3.67,3.67,0,0,1,3.84,3.83c0,2,0,4,0,6,0,.42.11.59.55.57s1.1,0,1.66,0a.93.93,0,0,0,.73-.31c1-1,2-2.05,3.06-3.07a3.37,3.37,0,1,1,4.77,4.77c-.51.51-1,1-1.54,1.53-.23.22-.21.35,0,.52a5.15,5.15,0,0,1,.7.53,1.59,1.59,0,0,0,1.34.46c.38-.05.51.12.51.5q0,3.21,0,6.42c0,.39-.15.53-.52.49a3.77,3.77,0,0,0-1.62.27c-.75.27-1.52.51-2.28.77a7.63,7.63,0,0,1-6.64-.72c-.58-.35-.76-.25-.76.44V38.6a3.67,3.67,0,0,1-3.89,3.91q-7.65,0-15.28,0c-.46,0-.63.18-.82.59a8.52,8.52,0,0,0-.69,4.17c.05,1.16,0,1.16-1.18,1.16H6c-.65,0-.69,0-.65-.63a10.27,10.27,0,0,0-.94-5.28,19.3,19.3,0,0,1-1.16-5.06c-.28-1.59-.57-3.18-.78-4.78A7.92,7.92,0,0,1,4.55,26c.59-.64,1.22-1.26,1.86-1.86a1.17,1.17,0,0,0,.38-.93q0-8.4,0-16.8A3.65,3.65,0,0,1,9.28,2.81a3.72,3.72,0,0,1,1.32-.2ZM11.24,30.83l.07,0c.11-.43.21-.86.34-1.29a2.48,2.48,0,0,1,4.86.29c.09.56.13,1.13.17,1.7s0,.59.64.59H27c1.46,0,2.92,0,4.38,0,.43,0,.56-.14.54-.56q0-.9,0-1.8c0-.37-.08-.47-.45-.31-.89.37-1.79.73-2.7,1.07a1.92,1.92,0,0,1-2.17-.43A1.94,1.94,0,0,1,26.12,28c.22-.61.51-1.19.7-1.81A6.18,6.18,0,0,1,28.87,23c.3-.23.28-.41,0-.7a2.8,2.8,0,0,1,.18-3.95c.83-.83,1.65-1.66,2.49-2.48a1,1,0,0,0,.31-.77c0-1.49,0-3,0-4.48,0-.64,0-.64-.64-.64H11.87c-.63,0-.63,0-.63.65V30.83Zm-3-9.75h0V35.85a.65.65,0,0,0,.51.68c.33.07.54-.13.69-.42a22.19,22.19,0,0,0,1-2.24.42.42,0,0,0-.15-.56A1.5,1.5,0,0,1,9.73,32q0-10.94,0-21.88a1.48,1.48,0,0,1,1.64-1.62H31.73a1.49,1.49,0,0,1,1.66,1.65c0,1.14,0,2.28,0,3.41,0,.13-.07.31.08.38s.22-.09.32-.14a5.07,5.07,0,0,1,.64-.37.57.57,0,0,0,.41-.62c0-2.13,0-4.25,0-6.37a2.2,2.2,0,0,0-2.36-2.34H10.65a2.44,2.44,0,0,0-1.07.21A2.27,2.27,0,0,0,8.29,6.59ZM6.78,26l-.16-.1-.86.95a6.44,6.44,0,0,0-1.82,5.4c.21,1.6.52,3.18.75,4.78a22.86,22.86,0,0,0,1.73,6.48c.12.24.22.41.53.41h7.1a.42.42,0,0,0,.44-.26A12.24,12.24,0,0,0,15.61,38c-.08-1.49-.22-3-.33-4.46-.09-1.13-.18-2.26-.28-3.39a1,1,0,0,0-.83-.87,1,1,0,0,0-1,.61,4.4,4.4,0,0,0-.18.62,31.73,31.73,0,0,1-1.57,5.11c-.19.45-.4.89-.63,1.33A2.08,2.08,0,0,1,8.41,38a2.13,2.13,0,0,1-1.63-2.09V26Zm10.4,11.39a28.92,28.92,0,0,1-.13,2.94C17,41,17,41,17.6,41H32.32a2.27,2.27,0,0,0,2.52-2.51V27.23a.65.65,0,0,0-.15-.57c-.32.35-.61.71-.94,1a1.1,1.1,0,0,0-.36.9c0,1.08,0,2.15,0,3.23,0,1.32-.53,1.84-1.85,1.84-4.7,0-9.41,0-14.12,0-.44,0-.61.14-.56.59.08.87.14,1.74.21,2.61a.78.78,0,0,0,0-.3,1.47,1.47,0,0,1,1.46-1.44h6A1.46,1.46,0,0,1,26,36.56a2.94,2.94,0,0,1-2.88,3c-.89,0-1.78,0-2.67,0A3.12,3.12,0,0,1,17.18,37.43Zm24-17.22.05.12H42c1.08,0,1-.14,1,1,0,.42-.15.53-.54.52-1,0-2,0-3.05,0a1.07,1.07,0,0,1-.72-.25c-.65-.53-1.33-1-2-1.58a4.75,4.75,0,0,0-2.5-1.09,1.22,1.22,0,0,0-1.47.72c-.21.57,0,1.06.65,1.45L38,23.82a5.91,5.91,0,0,0,5,.65c1.13-.35,2.25-.75,3.37-1.11a.45.45,0,0,0,.38-.49c0-1.2,0-2.39,0-3.59,0-.14,0-.29-.13-.37a23.56,23.56,0,0,1-2.09-1.51c-.15-.1-.26-.12-.4,0C43.1,18.35,42.17,19.28,41.23,20.21ZM44.77,10a2.11,2.11,0,0,0-1.37.62c-1,1-1.95,2-2.93,2.94l-3.94,3.95c-.15.14-.39.3,0,.48a15.13,15.13,0,0,1,2.33,1.73c.29.23.47.27.76,0,1.24-1.28,2.52-2.53,3.78-3.79.9-.9,1.82-1.79,2.7-2.71a1.8,1.8,0,0,0,.41-2.09A1.89,1.89,0,0,0,44.77,10ZM32,27.3a1.55,1.55,0,0,0,.17-.13c1-1,2-2,2.93-2.93.19-.19.11-.31-.08-.42l-2.68-1.63a.33.33,0,0,0-.48.06c-.74.75-1.49,1.51-2.25,2.25-.22.21-.2.36,0,.56.69.68,1.37,1.37,2.05,2.05C31.71,27.19,31.79,27.3,32,27.3ZM10.44,46.91H13.3c.95,0,.84.1.87-.87,0-.43-.12-.59-.57-.58-1.95,0-3.9,0-5.85,0-1,0-.92-.14-.94.94,0,.37.11.51.5.51C8.35,46.9,9.4,46.91,10.44,46.91Zm27-32.44a4.08,4.08,0,0,0-3.32,1.06l-2.31,2.31c-.54.55-1.1,1.08-1.63,1.64A1.29,1.29,0,0,0,30,21.3c.17.19.32.25.54,0,.38-.35.72-.69.58-1.28a1.49,1.49,0,0,1,.06-.69,2.64,2.64,0,0,1,2.61-2c.28,0,.59.11.83-.13ZM21.57,36.61c-.85,0-1.69,0-2.54,0-.33,0-.4.13-.31.42a1.46,1.46,0,0,0,1.4,1c1,0,1.93,0,2.9,0a1.46,1.46,0,0,0,1.39-1c.09-.3,0-.42-.31-.42C23.25,36.62,22.41,36.61,21.57,36.61Zm8.85-8.52L30.31,28l-1.59-1.6c-.18-.18-.28-.1-.36.1-.26.67-.52,1.34-.79,2a.48.48,0,0,0,.64.64l2-.8C30.3,28.27,30.43,28.26,30.42,28.09ZM21.57,15.93H13.32c-.62,0-.63,0-.63-.61,0-1.11,0-2.21,0-3.32,0-.4.13-.54.54-.54,5.56,0,11.12,0,16.69,0,.44,0,.54.17.54.58,0,1.1,0,2.21,0,3.32,0,.44-.14.58-.58.58C27.1,15.92,24.34,15.93,21.57,15.93Zm-.05-1.51c2.29,0,4.58,0,6.87,0,.43,0,.6-.14.55-.56a2.43,2.43,0,0,1,0-.27c0-.62,0-.62-.61-.62H14.81c-.61,0-.61,0-.61.62a.91.91,0,0,1,0,.23c-.06.46.12.61.59.6C17,14.41,19.27,14.42,21.52,14.42Zm4.66,4.47c.44,0,.63-.14.57-.58a2.61,2.61,0,0,1,0-.28c0-.65,0-.65-.67-.65h-8c-1,0-.92-.11-.95.94,0,.45.16.58.59.57,1.42,0,2.83,0,4.24,0S24.77,18.87,26.18,18.89Zm0,5.91c.44,0,.63-.14.57-.58a2.61,2.61,0,0,1,0-.28c0-.65,0-.66-.67-.66h-8c-1,0-.92-.13-.95,1,0,.41.15.53.54.53,1.43,0,2.86,0,4.29,0S24.76,24.78,26.18,24.8Zm-1.81,2.94c1,0,.88.1.91-.93,0-.44-.14-.58-.58-.58-2.21,0-4.42,0-6.63,0-1,0-.93-.13-1,1,0,.4.14.54.54.53,1.16,0,2.33,0,3.5,0S23.3,27.75,24.37,27.74Zm-6.3,1.45c-1,0-.93-.11-1,.94,0,.44.14.58.58.58,2.21,0,4.43,0,6.64,0,1,0,.92.12,1-1,0-.41-.13-.54-.53-.54-1.17,0-2.34,0-3.51,0ZM18,20.33c-1,0-.88-.09-.91.93,0,.45.14.59.58.59,1.71,0,3.41,0,5.11,0,1.09,0,1,.15,1-1,0-.36-.13-.49-.48-.48-.94,0-1.88,0-2.81,0Zm8,0c-.76,0-.76,0-.76.75s0,.76.75.76.76,0,.76-.75S26.75,20.33,26,20.33ZM23.6,7.07c1,0,.91.11.94-1,0-.41-.12-.57-.55-.56-1.48,0-2.95,0-4.43,0-1,0-.94-.13-1,1,0,.4.12.56.53.54.82,0,1.63,0,2.45,0Zm6.1-1.5a.75.75,0,1,0,.73.73A.75.75,0,0,0,29.7,5.57Zm3,0a.75.75,0,0,0-.09,1.49.75.75,0,0,0,.09-1.49Z"/>
</svg>
