<svg id="Layer_1" data-name="Layer 1" xmlns="http://www.w3.org/2000/svg" xmlns:xlink="http://www.w3.org/1999/xlink" viewBox="0 0 50 50">
  <defs>
    <style>
      .cls-1 {
        fill: url(#linear-gradient);
      }
    </style>
    <linearGradient id="linear-gradient" x1="-5.19" y1="40.38" x2="49.72" y2="4.72" gradientTransform="matrix(1, 0, 0, -1, 0, 49.89)" gradientUnits="userSpaceOnUse">
      <stop offset="0" stop-color="#21c3f1"/>
      <stop offset="0.6" stop-color="#a685d2"/>
      <stop offset="1" stop-color="#7f40e5"/>
    </linearGradient>
  </defs>
  <path class="cls-1" d="M5.63,44.42H7.16V46H5.63Zm3.16,0h1.54V46H8.79Zm3.07,0h1.53V46H11.86Zm26.28,0h6.23V46H38.14Zm9.3-3.16V15.74a3.84,3.84,0,0,0-3.83-3.83h-2.3a10.89,10.89,0,0,0-21.78,0H6.39a3.84,3.84,0,0,0-3.83,3.83V41.26H1v3.83a3.85,3.85,0,0,0,3.84,3.84H45.14A3.85,3.85,0,0,0,49,45.09V41.26ZM43.61,13.44a2.34,2.34,0,0,1,2.3,2.3V41.26H44.37V16.51A1.51,1.51,0,0,0,42.84,15h-2a4.4,4.4,0,0,0,.28-1.54ZM21.55,9l8.25,3.45,2.78,8.44a7.87,7.87,0,0,1-2.21.29,9.31,9.31,0,0,1-9.3-9.3A14.44,14.44,0,0,1,21.55,9ZM34.11,20.44,31.33,12.1l6.14-6.24a9.52,9.52,0,0,1,2.2,6A9.34,9.34,0,0,1,34.11,20.44ZM30.37,2.6a9.11,9.11,0,0,1,5.95,2.21L30.18,11,22.12,7.59A9.43,9.43,0,0,1,30.37,2.6ZM4.09,15.74a2.34,2.34,0,0,1,2.3-2.3H19.63c.09.58.19,1.06.29,1.54H7.26a1.51,1.51,0,0,0-1.54,1.53V41.26H4.09ZM47.44,45.19a2.33,2.33,0,0,1-2.3,2.3H4.86a2.33,2.33,0,0,1-2.3-2.3v-2.3H18.48a6.17,6.17,0,0,0,4,1.53H27.4a6,6,0,0,0,4-1.53h9.78V41.35H30.85l-.19.2a4.53,4.53,0,0,1-3.17,1.34H22.6a4.35,4.35,0,0,1-3.16-1.34l-.19-.2h-12V16.51H20.68a10.89,10.89,0,0,0,9.79,6.24,10.73,10.73,0,0,0,9.78-6.24h2.59V42.79h4.6ZM38.91,33.58a2.43,2.43,0,0,0-1.25.39L35,32a1.72,1.72,0,0,0,.09-.67,2.3,2.3,0,1,0-4.6,0c0,.29.09.48.09.77L26.25,35.5A2.77,2.77,0,0,0,25,35.12a2.26,2.26,0,0,0-1.34.48L20.3,33.39c0-.19.1-.38.1-.57a2.31,2.31,0,0,0-4.61,0,1.15,1.15,0,0,0,.1.57L12.44,35.6a2.27,2.27,0,1,0,1,1.82,1.26,1.26,0,0,0-.09-.57l3.36-2.21a2.11,2.11,0,0,0,2.68,0l3.36,2.21c0,.19-.1.38-.1.57a2.31,2.31,0,0,0,4.61,0c0-.29-.1-.48-.1-.77l4.32-3.45a2.7,2.7,0,0,0,1.24.38,2.43,2.43,0,0,0,1.25-.38l2.69,2a1.61,1.61,0,0,0-.1.68,2.3,2.3,0,1,0,4.6,0A2.19,2.19,0,0,0,38.91,33.58ZM11.09,38.19a.77.77,0,0,1,0-1.54.77.77,0,1,1,0,1.54ZM18,33.58a.77.77,0,1,1,0-1.53.83.83,0,0,1,.77.77A.75.75,0,0,1,18,33.58Zm7,4.61a.77.77,0,1,1,.77-.77A.84.84,0,0,1,25,38.19Zm7.77-6.14a.77.77,0,1,1,.77-.77A.83.83,0,0,1,32.77,32.05Zm6.14,4.6a.77.77,0,1,1,.76-.76A.75.75,0,0,1,38.91,36.65ZM21.16,18.05H8.79V28.88H21.16Zm-1.53,9.3h-9.3V19.58h9.3Zm-7.77-6.14h6.23v1.54H11.86Zm0,3.07h6.23v1.54H11.86ZM22.7,25.82h1.53v1.53H22.7Zm3.07,0H41.21v1.53H25.77Z"/>
</svg>
