<svg id="Layer_1" data-name="Layer 1" xmlns="http://www.w3.org/2000/svg" xmlns:xlink="http://www.w3.org/1999/xlink" viewBox="0 0 50 50">
  <defs>
    <style>
      .cls-1 {
        fill: url(#linear-gradient);
      }
    </style>
    <linearGradient id="linear-gradient" x1="3.08" y1="25.15" x2="46.79" y2="25.15" gradientUnits="userSpaceOnUse">
      <stop offset="0" stop-color="#21c3f1"/>
      <stop offset="0.6" stop-color="#a685d2"/>
      <stop offset="1" stop-color="#7f40e5"/>
    </linearGradient>
  </defs>
  <path class="cls-1" d="M31.77,1.87a3,3,0,0,1,.53.41,1.06,1.06,0,0,1,.21,1.22,1.15,1.15,0,0,1-1.1.73H27.29V8.59a19.87,19.87,0,0,1,11.94,4.93L41.77,11c-.31-.3-.7-.66-1.07-1a1.19,1.19,0,1,1,1.67-1.67l4,4a1.22,1.22,0,0,1,.1,1.81,1.24,1.24,0,0,1-1.78-.14l-1.06-1.06a.08.08,0,0,0-.05,0l-2.48,2.49c.41.53.87,1.07,1.27,1.65A19.94,19.94,0,0,1,30.26,48a19.53,19.53,0,0,1-18.1-5.18,1.2,1.2,0,1,1,1.63-1.71,17.6,17.6,0,0,0,19.38,3.49A17.47,17.47,0,0,0,43.6,29.49,17.53,17.53,0,0,0,24.73,11a16.82,16.82,0,0,0-8.66,3.09c-.81.57-1.56,1.25-2.32,1.89A1.24,1.24,0,0,1,12,16a1.22,1.22,0,0,1,.17-1.77,19.58,19.58,0,0,1,9-5.07c1.19-.3,2.41-.44,3.67-.66V4.23H20.92a1.27,1.27,0,0,1-1.34-.87A1.19,1.19,0,0,1,20.3,2a.39.39,0,0,0,.1-.08Zm-9.71,27.5a3.93,3.93,0,0,0,3.08,3.12,3.86,3.86,0,0,0,4-1.23,3.93,3.93,0,0,0,.75-4.34.52.52,0,0,1,.13-.67c1.35-1.32,2.69-2.67,4-4,.65-.64,1.3-1.27,1.93-1.93a1.16,1.16,0,0,0-.3-1.88,1.25,1.25,0,0,0-1.54.39c-1.93,1.93-3.87,3.85-5.78,5.79a.54.54,0,0,1-.67.13c-.5-.18-1-.28-1.56-.41A4.18,4.18,0,0,0,22.06,29.37Zm5.77-.89a1.76,1.76,0,1,1-1.75-1.72A1.75,1.75,0,0,1,27.83,28.48ZM7.24,27.33a1.67,1.67,0,0,0-.7.12,1.15,1.15,0,0,0-.66,1.31,1.25,1.25,0,0,0,1.29.93h10.5a1.22,1.22,0,0,0,1.38-1.18c0-.73-.53-1.18-1.41-1.19H7.24Zm7.53-5.23c1,0,1.52-.43,1.53-1.16s-.56-1.21-1.54-1.21H4.63a2.83,2.83,0,0,0-.58,0,1.15,1.15,0,0,0-.73,1.8,1.29,1.29,0,0,0,1.18.53c1.73,0,3.45,0,5.18,0ZM15,37.26a1.18,1.18,0,1,0,0-2.36c-3.56,0-7.12,0-10.68,0a1.73,1.73,0,0,0-1,.45,1,1,0,0,0-.19,1.17,1.14,1.14,0,0,0,1.11.73H15ZM36.8,38.71a1.12,1.12,0,0,0-.2-1.34c-.53-.56-1.08-1.11-1.63-1.64a1.17,1.17,0,1,0-1.65,1.67c.51.54,1,1.07,1.57,1.57a4.54,4.54,0,0,0,.81.45A1.29,1.29,0,0,0,36.8,38.71Zm2.88-9a1.23,1.23,0,0,0,1.24-1.19,1.2,1.2,0,0,0-1.24-1.17H37.55a1.18,1.18,0,0,0-1.25,1.15,1.2,1.2,0,0,0,1.25,1.21h2.13ZM27.25,41c0-.37,0-.75,0-1.13a1.19,1.19,0,0,0-1.14-1.18,1.16,1.16,0,0,0-1.18,1.08,20.69,20.69,0,0,0,0,2.49,1.14,1.14,0,0,0,1.19,1.06,1.17,1.17,0,0,0,1.13-1.14c0-.39,0-.78,0-1.18Zm0-26.23a1.16,1.16,0,0,0-1.1-1.12,1.13,1.13,0,0,0-1.22,1,21.52,21.52,0,0,0,0,2.54,1.16,1.16,0,0,0,1.18,1,1.19,1.19,0,0,0,1.14-1.14c0-.39,0-.79,0-1.18S27.26,15.18,27.24,14.79Z"/>
</svg>
