<svg id="Layer_1" data-name="Layer 1" xmlns="http://www.w3.org/2000/svg" xmlns:xlink="http://www.w3.org/1999/xlink" viewBox="0 0 50 50">
  <defs>
    <style>
      .cls-1 {
        fill: url(#linear-gradient);
      }
    </style>
    <linearGradient id="linear-gradient" x1="1.63" y1="25.38" x2="48.37" y2="25.38" gradientUnits="userSpaceOnUse">
      <stop offset="0" stop-color="#21c3f1"/>
      <stop offset="0.6" stop-color="#a685d2"/>
      <stop offset="1" stop-color="#7f40e5"/>
    </linearGradient>
  </defs>
  <path class="cls-1" d="M35.54,48.8c-.7-.15-1.41-.25-2.09-.45a10.75,10.75,0,0,1,1.34-20.94,10.59,10.59,0,0,1,6.45,1,1.15,1.15,0,0,1,.69,1.23,1.07,1.07,0,0,1-.94.93,1.78,1.78,0,0,1-.87-.17A8.48,8.48,0,1,0,45,38.18a1.15,1.15,0,1,1,2.29,0,10.78,10.78,0,0,1-9.44,10.5c-.12,0-.23.06-.35.09Zm1.52-28.37a1.2,1.2,0,0,0-1.32,1.2,1.21,1.21,0,0,0,1.34,1.18c.92,0,1.83,0,2.75,0a1.29,1.29,0,0,0,1.45-1.51,30.56,30.56,0,0,0-.55-4.16,19.81,19.81,0,1,0-38.4,9.73A19.5,19.5,0,0,0,15.49,40.65a17.8,17.8,0,0,0,5.89.93,1.14,1.14,0,0,0,1.26-1c0-1.2,0-2.4,0-3.61a1.13,1.13,0,0,0-1.15-1,1.21,1.21,0,0,0-1.22,1.27c0,.65,0,1.3,0,2A17.31,17.31,0,0,1,4.12,22.86s0,0,0,0c.61,0,1.21,0,1.82,0a1.18,1.18,0,0,0,1.21-1.35,1.16,1.16,0,0,0-1.2-1H4.14c.53-9,8.41-15.79,16.13-16,0,.53,0,1.06,0,1.59a1.23,1.23,0,0,0,.88,1.25,1.17,1.17,0,0,0,1.5-1.1c0-.59,0-1.18,0-1.77a17.4,17.4,0,0,1,16.16,16Zm-6.2,17.62c1.49,1.52,3,3,4.49,4.5.55.55.64.55,1.18,0L47.82,31.27A3.83,3.83,0,0,0,48.1,31a1.15,1.15,0,0,0,.11-1.33A1.06,1.06,0,0,0,47,29.14a2,2,0,0,0-.8.5q-4.89,4.86-9.77,9.75c-.45.46-.6.46-1,0L34.06,38c-.57-.57-1.14-1.15-1.72-1.71a1.09,1.09,0,0,0-1.26-.26c-.45.19-.68.55-.7,1.25A3.72,3.72,0,0,0,30.86,38.05Zm-8.2-19.72c0-1.15,0-2.29,0-3.43a1.19,1.19,0,0,0-.92-1.21A1.22,1.22,0,0,0,20.27,15c0,1.89,0,3.78,0,5.67a.66.66,0,0,1-.38.64q-3.76,2.14-7.52,4.33a2.17,2.17,0,0,0-.69.69A1.11,1.11,0,0,0,12,27.66a1.22,1.22,0,0,0,1.49.1L22,22.86a1.26,1.26,0,0,0,.69-1.19c0-1.12,0-2.23,0-3.34Z"/>
</svg>
