<svg id="Layer_1" data-name="Layer 1" xmlns="http://www.w3.org/2000/svg" xmlns:xlink="http://www.w3.org/1999/xlink" viewBox="0 0 50 50">
  <defs>
    <style>
      .cls-1 {
        fill: url(#linear-gradient);
      }
    </style>
    <linearGradient id="linear-gradient" x1="2.62" y1="25" x2="47.36" y2="25" gradientUnits="userSpaceOnUse">
      <stop offset="0" stop-color="#21c3f1"/>
      <stop offset="0.6" stop-color="#a685d2"/>
      <stop offset="1" stop-color="#7f40e5"/>
    </linearGradient>
  </defs>
  <path class="cls-1" d="M47.34,26.11a2.94,2.94,0,0,0-2.77-2.64c-1.32,0-2.23.65-2.87,2.14H36.61c.14-.86.6-4.82.8-6.28h0c.08-.49.17-1,.25-1.47h3.47c.89,0,1.09-.2,1.09-1.09,0-2.26,0-4.51,0-6.77a.53.53,0,0,1,.38-.59,2.92,2.92,0,0,0,1.82-3,3,3,0,0,0-2.8-2.65,3,3,0,0,0-3,2.22A3,3,0,0,0,40.3,9.41a.51.51,0,0,1,.35.57c0,1.94,0,3.88,0,5.82,0,.14,0,.29,0,.43H37.81c.08-1.16.16-2.29.24-3.41.07-.87-.3-1.2-1.16-1A10.68,10.68,0,0,1,28.16,10a32.09,32.09,0,0,1-2.6-2.22.84.84,0,0,0-1.36,0l-.34.36a11.74,11.74,0,0,1-5.27,3.33,12,12,0,0,1-5.62.26c-.83-.16-1.23.21-1.16,1.06L12,14.63c0,.54.07,1.07.11,1.6H9.46v-.51c0-1.86,0-3.73,0-5.59a.7.7,0,0,1,.47-.78A2.92,2.92,0,0,0,11.53,6a3,3,0,0,0-5.77.13,2.92,2.92,0,0,0,1.8,3.32A.47.47,0,0,1,7.9,10q0,3.46,0,6.94c0,.69.25.94.95,1h3.36l0,.09h0c.17,1.11.94,6.57,1.11,7.67H8.26c0-.08,0-.15-.08-.22a2.85,2.85,0,0,0-2.87-1.92A2.9,2.9,0,0,0,2.7,25.71a1.67,1.67,0,0,1-.08.2v1c0,.07.06.13.08.21a2.89,2.89,0,0,0,2.66,2.28,2.89,2.89,0,0,0,2.81-1.88.54.54,0,0,1,.41-.28c1.6,0,3.2,0,4.8,0,.27,0,.36.12.45.37.4,1.19.84,2.36,1.26,3.54.07.2.15.39.24.64H9.44c-.77,0-1,.23-1,1,0,2.41,0,4.81,0,7.22a.53.53,0,0,1-.37.59A3,3,0,0,0,9.2,46.27a3,3,0,0,0,1.13-5.68A.52.52,0,0,1,10,40c0-2.06,0-4.12,0-6.18,0-.14,0-.29,0-.43l.16,0q2.92,0,5.85,0a.58.58,0,0,1,.4.27,16.48,16.48,0,0,0,8.18,6.47,1.27,1.27,0,0,0,.84,0,16.89,16.89,0,0,0,8-6.39.67.67,0,0,1,.63-.36c1.88,0,3.76,0,5.64,0l.47,0v.52c0,2,0,4.06,0,6.09a.6.6,0,0,1-.41.66,3,3,0,0,0-1.6,3.4A2.94,2.94,0,0,0,41,46.27a3,3,0,0,0,1.06-5.67.54.54,0,0,1-.37-.6c0-2.39,0-4.78,0-7.17,0-.89-.18-1.07-1.05-1.07h-6a1.73,1.73,0,0,1,0-.2c.5-1.36,1-2.73,1.5-4.08a.54.54,0,0,1,.41-.25c1.55,0,3.09,0,4.63,0a.62.62,0,0,1,.7.47,2.79,2.79,0,0,0,3.38,1.59A3,3,0,0,0,47.34,26.11ZM40.1,6.69a1.39,1.39,0,1,1,1.37,1.38A1.38,1.38,0,0,1,40.1,6.69ZM8.63,8.07a1.37,1.37,0,0,1,0-2.74,1.37,1.37,0,1,1,0,2.74ZM5.5,27.8a1.35,1.35,0,0,1-1.35-1.35,1.37,1.37,0,0,1,1.32-1.39,1.35,1.35,0,0,1,1.35,1.36A1.34,1.34,0,0,1,5.5,27.8Zm5,15.52a1.34,1.34,0,1,1-1.36-1.39A1.36,1.36,0,0,1,10.54,43.32ZM41,41.93a1.37,1.37,0,1,1-1.36,1.34A1.36,1.36,0,0,1,41,41.93ZM34.6,27.23a17,17,0,0,1-4.55,8.11,15.61,15.61,0,0,1-4.83,3.09.81.81,0,0,1-.57,0,15.15,15.15,0,0,1-8.93-9.9A89.5,89.5,0,0,1,14,19H14c-.08-.62-.16-1.23-.23-1.85-.12-1.21-.22-2.42-.33-3.68,4.51.45,8.37-.71,11.49-4,3.22,3,6.93,4.68,11.5,4-.07.84-.13,1.64-.2,2.44-.11,1.14-.22,2.31-.38,3.44h0C35.59,21.21,35,25.86,34.6,27.23Zm9.88.57a1.37,1.37,0,1,1,1.34-1.37A1.35,1.35,0,0,1,44.48,27.8ZM24.94,18c-.23,0-.45,0-.67.09A3.1,3.1,0,0,0,23.79,24a.5.5,0,0,1,.37.55c0,.9,0,1.8,0,2.7,0,.6.31.95.79.95s.8-.35.8-.94c0-.88,0-1.77,0-2.65a.54.54,0,0,1,.41-.62,3.11,3.11,0,0,0-1.2-6Zm0,4.64a1.52,1.52,0,0,1-1.52-1.51,1.52,1.52,0,1,1,3,0A1.53,1.53,0,0,1,24.94,22.66Z"/>
</svg>
